<?xml version="1.0" encoding="UTF-8" standalone="no"?>
<!DOCTYPE svg PUBLIC "-//W3C//DTD SVG 1.1//EN"
 "http://www.w3.org/Graphics/SVG/1.1/DTD/svg11.dtd">
<!-- Generated by graphviz version 2.36.0 (20140111.2315)
 -->
<!-- Title: %3 Pages: 1 -->
<svg width="482pt" height="3872pt"
 viewBox="0.00 0.00 482.00 3872.00" xmlns="http://www.w3.org/2000/svg" xmlns:xlink="http://www.w3.org/1999/xlink">
<g id="graph0" class="graph" transform="scale(1 1) rotate(0) translate(4 3868)">
<title>%3</title>
<polygon fill="white" stroke="none" points="-4,4 -4,-3868 478,-3868 478,4 -4,4"/>
<!-- 0 -->
<g id="node1" class="node"><title>0</title>
<polygon fill="none" stroke="black" points="303.033,-3864 170.967,-3864 170.967,-3716 303.033,-3716 303.033,-3864"/>
<text text-anchor="middle" x="237" y="-3848.8" font-family="Times,serif" font-size="14.00">0: PUSH 80</text>
<text text-anchor="middle" x="237" y="-3834.8" font-family="Times,serif" font-size="14.00">1: PUSH 40</text>
<text text-anchor="middle" x="237" y="-3820.8" font-family="Times,serif" font-size="14.00">2: MSTORE</text>
<text text-anchor="middle" x="237" y="-3806.8" font-family="Times,serif" font-size="14.00">3: PUSH 4</text>
<text text-anchor="middle" x="237" y="-3792.8" font-family="Times,serif" font-size="14.00">4: CALLDATASIZE</text>
<text text-anchor="middle" x="237" y="-3778.8" font-family="Times,serif" font-size="14.00">5: LT</text>
<text text-anchor="middle" x="237" y="-3764.8" font-family="Times,serif" font-size="14.00">6: PUSH [tag] 1</text>
<text text-anchor="middle" x="237" y="-3750.8" font-family="Times,serif" font-size="14.00">7: JUMPI</text>
<text text-anchor="middle" x="237" y="-3736.8" font-family="Times,serif" font-size="14.00">Stack Sum: 0</text>
<text text-anchor="middle" x="237" y="-3722.8" font-family="Times,serif" font-size="14.00">Gas: 30</text>
</g>
<!-- 10001 -->
<g id="node2" class="node"><title>10001</title>
<polygon fill="none" stroke="black" points="474.262,-3680 -0.262349,-3680 -0.262349,-3476 474.262,-3476 474.262,-3680"/>
<text text-anchor="middle" x="237" y="-3664.8" font-family="Times,serif" font-size="14.00">8: PUSH 0</text>
<text text-anchor="middle" x="237" y="-3650.8" font-family="Times,serif" font-size="14.00">9: CALLDATALOAD</text>
<text text-anchor="middle" x="237" y="-3636.8" font-family="Times,serif" font-size="14.00">10: PUSH 100000000000000000000000000000000000000000000000000000000</text>
<text text-anchor="middle" x="237" y="-3622.8" font-family="Times,serif" font-size="14.00">11: SWAP1</text>
<text text-anchor="middle" x="237" y="-3608.8" font-family="Times,serif" font-size="14.00">12: DIV</text>
<text text-anchor="middle" x="237" y="-3594.8" font-family="Times,serif" font-size="14.00">13: PUSH FFFFFFFF</text>
<text text-anchor="middle" x="237" y="-3580.8" font-family="Times,serif" font-size="14.00">14: AND</text>
<text text-anchor="middle" x="237" y="-3566.8" font-family="Times,serif" font-size="14.00">15: DUP1</text>
<text text-anchor="middle" x="237" y="-3552.8" font-family="Times,serif" font-size="14.00">16: PUSH 430F9B7</text>
<text text-anchor="middle" x="237" y="-3538.8" font-family="Times,serif" font-size="14.00">17: EQ</text>
<text text-anchor="middle" x="237" y="-3524.8" font-family="Times,serif" font-size="14.00">18: PUSH [tag] 2</text>
<text text-anchor="middle" x="237" y="-3510.8" font-family="Times,serif" font-size="14.00">19: JUMPI</text>
<text text-anchor="middle" x="237" y="-3496.8" font-family="Times,serif" font-size="14.00">Stack Sum: 1</text>
<text text-anchor="middle" x="237" y="-3482.8" font-family="Times,serif" font-size="14.00">Gas: 45</text>
</g>
<!-- 0&#45;&gt;10001 -->
<g id="edge1" class="edge"><title>0&#45;&gt;10001</title>
<path fill="none" stroke="blue" d="M237,-3715.85C237,-3707.59 237,-3699.05 237,-3690.45"/>
<polygon fill="blue" stroke="blue" points="240.5,-3690.34 237,-3680.34 233.5,-3690.34 240.5,-3690.34"/>
</g>
<!-- 10002 -->
<g id="node3" class="node"><title>10002</title>
<polygon fill="none" stroke="black" points="306.178,-3440 167.822,-3440 167.822,-3334 306.178,-3334 306.178,-3440"/>
<text text-anchor="middle" x="237" y="-3424.8" font-family="Times,serif" font-size="14.00">20: DUP1</text>
<text text-anchor="middle" x="237" y="-3410.8" font-family="Times,serif" font-size="14.00">21: PUSH 1923A0D8</text>
<text text-anchor="middle" x="237" y="-3396.8" font-family="Times,serif" font-size="14.00">22: EQ</text>
<text text-anchor="middle" x="237" y="-3382.8" font-family="Times,serif" font-size="14.00">23: PUSH [tag] 3</text>
<text text-anchor="middle" x="237" y="-3368.8" font-family="Times,serif" font-size="14.00">24: JUMPI</text>
<text text-anchor="middle" x="237" y="-3354.8" font-family="Times,serif" font-size="14.00">Stack Sum: 0</text>
<text text-anchor="middle" x="237" y="-3340.8" font-family="Times,serif" font-size="14.00">Gas: 22</text>
</g>
<!-- 10001&#45;&gt;10002 -->
<g id="edge2" class="edge"><title>10001&#45;&gt;10002</title>
<path fill="none" stroke="blue" d="M237,-3475.86C237,-3467.22 237,-3458.66 237,-3450.46"/>
<polygon fill="blue" stroke="blue" points="240.5,-3450.29 237,-3440.29 233.5,-3450.29 240.5,-3450.29"/>
</g>
<!-- 10003 -->
<g id="node4" class="node"><title>10003</title>
<polygon fill="none" stroke="black" points="304.346,-3298 169.654,-3298 169.654,-3192 304.346,-3192 304.346,-3298"/>
<text text-anchor="middle" x="237" y="-3282.8" font-family="Times,serif" font-size="14.00">25: DUP1</text>
<text text-anchor="middle" x="237" y="-3268.8" font-family="Times,serif" font-size="14.00">26: PUSH 1A695230</text>
<text text-anchor="middle" x="237" y="-3254.8" font-family="Times,serif" font-size="14.00">27: EQ</text>
<text text-anchor="middle" x="237" y="-3240.8" font-family="Times,serif" font-size="14.00">28: PUSH [tag] 4</text>
<text text-anchor="middle" x="237" y="-3226.8" font-family="Times,serif" font-size="14.00">29: JUMPI</text>
<text text-anchor="middle" x="237" y="-3212.8" font-family="Times,serif" font-size="14.00">Stack Sum: 0</text>
<text text-anchor="middle" x="237" y="-3198.8" font-family="Times,serif" font-size="14.00">Gas: 22</text>
</g>
<!-- 10002&#45;&gt;10003 -->
<g id="edge3" class="edge"><title>10002&#45;&gt;10003</title>
<path fill="none" stroke="blue" d="M237,-3333.87C237,-3325.58 237,-3316.93 237,-3308.43"/>
<polygon fill="blue" stroke="blue" points="240.5,-3308.17 237,-3298.17 233.5,-3308.17 240.5,-3308.17"/>
</g>
<!-- 10004 -->
<g id="node5" class="node"><title>10004</title>
<polygon fill="none" stroke="black" points="306.108,-3156 167.892,-3156 167.892,-3050 306.108,-3050 306.108,-3156"/>
<text text-anchor="middle" x="237" y="-3140.8" font-family="Times,serif" font-size="14.00">30: DUP1</text>
<text text-anchor="middle" x="237" y="-3126.8" font-family="Times,serif" font-size="14.00">31: PUSH 2F54BF6E</text>
<text text-anchor="middle" x="237" y="-3112.8" font-family="Times,serif" font-size="14.00">32: EQ</text>
<text text-anchor="middle" x="237" y="-3098.8" font-family="Times,serif" font-size="14.00">33: PUSH [tag] 5</text>
<text text-anchor="middle" x="237" y="-3084.8" font-family="Times,serif" font-size="14.00">34: JUMPI</text>
<text text-anchor="middle" x="237" y="-3070.8" font-family="Times,serif" font-size="14.00">Stack Sum: 0</text>
<text text-anchor="middle" x="237" y="-3056.8" font-family="Times,serif" font-size="14.00">Gas: 22</text>
</g>
<!-- 10003&#45;&gt;10004 -->
<g id="edge4" class="edge"><title>10003&#45;&gt;10004</title>
<path fill="none" stroke="blue" d="M237,-3191.87C237,-3183.58 237,-3174.93 237,-3166.43"/>
<polygon fill="blue" stroke="blue" points="240.5,-3166.17 237,-3156.17 233.5,-3166.17 240.5,-3166.17"/>
</g>
<!-- 10005 -->
<g id="node6" class="node"><title>10005</title>
<polygon fill="none" stroke="black" points="304.93,-3014 169.07,-3014 169.07,-2908 304.93,-2908 304.93,-3014"/>
<text text-anchor="middle" x="237" y="-2998.8" font-family="Times,serif" font-size="14.00">35: DUP1</text>
<text text-anchor="middle" x="237" y="-2984.8" font-family="Times,serif" font-size="14.00">36: PUSH 34E80C34</text>
<text text-anchor="middle" x="237" y="-2970.8" font-family="Times,serif" font-size="14.00">37: EQ</text>
<text text-anchor="middle" x="237" y="-2956.8" font-family="Times,serif" font-size="14.00">38: PUSH [tag] 6</text>
<text text-anchor="middle" x="237" y="-2942.8" font-family="Times,serif" font-size="14.00">39: JUMPI</text>
<text text-anchor="middle" x="237" y="-2928.8" font-family="Times,serif" font-size="14.00">Stack Sum: 0</text>
<text text-anchor="middle" x="237" y="-2914.8" font-family="Times,serif" font-size="14.00">Gas: 22</text>
</g>
<!-- 10004&#45;&gt;10005 -->
<g id="edge5" class="edge"><title>10004&#45;&gt;10005</title>
<path fill="none" stroke="blue" d="M237,-3049.87C237,-3041.58 237,-3032.93 237,-3024.43"/>
<polygon fill="blue" stroke="blue" points="240.5,-3024.17 237,-3014.17 233.5,-3024.17 240.5,-3024.17"/>
</g>
<!-- 10006 -->
<g id="node7" class="node"><title>10006</title>
<polygon fill="none" stroke="black" points="303.013,-2872 170.987,-2872 170.987,-2766 303.013,-2766 303.013,-2872"/>
<text text-anchor="middle" x="237" y="-2856.8" font-family="Times,serif" font-size="14.00">40: DUP1</text>
<text text-anchor="middle" x="237" y="-2842.8" font-family="Times,serif" font-size="14.00">41: PUSH 53295544</text>
<text text-anchor="middle" x="237" y="-2828.8" font-family="Times,serif" font-size="14.00">42: EQ</text>
<text text-anchor="middle" x="237" y="-2814.8" font-family="Times,serif" font-size="14.00">43: PUSH [tag] 7</text>
<text text-anchor="middle" x="237" y="-2800.8" font-family="Times,serif" font-size="14.00">44: JUMPI</text>
<text text-anchor="middle" x="237" y="-2786.8" font-family="Times,serif" font-size="14.00">Stack Sum: 0</text>
<text text-anchor="middle" x="237" y="-2772.8" font-family="Times,serif" font-size="14.00">Gas: 22</text>
</g>
<!-- 10005&#45;&gt;10006 -->
<g id="edge6" class="edge"><title>10005&#45;&gt;10006</title>
<path fill="none" stroke="blue" d="M237,-2907.87C237,-2899.58 237,-2890.93 237,-2882.43"/>
<polygon fill="blue" stroke="blue" points="240.5,-2882.17 237,-2872.17 233.5,-2882.17 240.5,-2882.17"/>
</g>
<!-- 10007 -->
<g id="node8" class="node"><title>10007</title>
<polygon fill="none" stroke="black" points="306.098,-2730 167.902,-2730 167.902,-2624 306.098,-2624 306.098,-2730"/>
<text text-anchor="middle" x="237" y="-2714.8" font-family="Times,serif" font-size="14.00">45: DUP1</text>
<text text-anchor="middle" x="237" y="-2700.8" font-family="Times,serif" font-size="14.00">46: PUSH 63905D1B</text>
<text text-anchor="middle" x="237" y="-2686.8" font-family="Times,serif" font-size="14.00">47: EQ</text>
<text text-anchor="middle" x="237" y="-2672.8" font-family="Times,serif" font-size="14.00">48: PUSH [tag] 8</text>
<text text-anchor="middle" x="237" y="-2658.8" font-family="Times,serif" font-size="14.00">49: JUMPI</text>
<text text-anchor="middle" x="237" y="-2644.8" font-family="Times,serif" font-size="14.00">Stack Sum: 0</text>
<text text-anchor="middle" x="237" y="-2630.8" font-family="Times,serif" font-size="14.00">Gas: 22</text>
</g>
<!-- 10006&#45;&gt;10007 -->
<g id="edge7" class="edge"><title>10006&#45;&gt;10007</title>
<path fill="none" stroke="blue" d="M237,-2765.87C237,-2757.58 237,-2748.93 237,-2740.43"/>
<polygon fill="blue" stroke="blue" points="240.5,-2740.17 237,-2730.17 233.5,-2740.17 240.5,-2740.17"/>
</g>
<!-- 10008 -->
<g id="node9" class="node"><title>10008</title>
<polygon fill="none" stroke="black" points="307.352,-2588 166.648,-2588 166.648,-2482 307.352,-2482 307.352,-2588"/>
<text text-anchor="middle" x="237" y="-2572.8" font-family="Times,serif" font-size="14.00">50: DUP1</text>
<text text-anchor="middle" x="237" y="-2558.8" font-family="Times,serif" font-size="14.00">51: PUSH 89EA3C1F</text>
<text text-anchor="middle" x="237" y="-2544.8" font-family="Times,serif" font-size="14.00">52: EQ</text>
<text text-anchor="middle" x="237" y="-2530.8" font-family="Times,serif" font-size="14.00">53: PUSH [tag] 9</text>
<text text-anchor="middle" x="237" y="-2516.8" font-family="Times,serif" font-size="14.00">54: JUMPI</text>
<text text-anchor="middle" x="237" y="-2502.8" font-family="Times,serif" font-size="14.00">Stack Sum: 0</text>
<text text-anchor="middle" x="237" y="-2488.8" font-family="Times,serif" font-size="14.00">Gas: 22</text>
</g>
<!-- 10007&#45;&gt;10008 -->
<g id="edge8" class="edge"><title>10007&#45;&gt;10008</title>
<path fill="none" stroke="blue" d="M237,-2623.87C237,-2615.58 237,-2606.93 237,-2598.43"/>
<polygon fill="blue" stroke="blue" points="240.5,-2598.17 237,-2588.17 233.5,-2598.17 240.5,-2598.17"/>
</g>
<!-- 10009 -->
<g id="node10" class="node"><title>10009</title>
<polygon fill="none" stroke="black" points="307.431,-2446 166.569,-2446 166.569,-2340 307.431,-2340 307.431,-2446"/>
<text text-anchor="middle" x="237" y="-2430.8" font-family="Times,serif" font-size="14.00">55: DUP1</text>
<text text-anchor="middle" x="237" y="-2416.8" font-family="Times,serif" font-size="14.00">56: PUSH 8AC5D958</text>
<text text-anchor="middle" x="237" y="-2402.8" font-family="Times,serif" font-size="14.00">57: EQ</text>
<text text-anchor="middle" x="237" y="-2388.8" font-family="Times,serif" font-size="14.00">58: PUSH [tag] 10</text>
<text text-anchor="middle" x="237" y="-2374.8" font-family="Times,serif" font-size="14.00">59: JUMPI</text>
<text text-anchor="middle" x="237" y="-2360.8" font-family="Times,serif" font-size="14.00">Stack Sum: 0</text>
<text text-anchor="middle" x="237" y="-2346.8" font-family="Times,serif" font-size="14.00">Gas: 22</text>
</g>
<!-- 10008&#45;&gt;10009 -->
<g id="edge9" class="edge"><title>10008&#45;&gt;10009</title>
<path fill="none" stroke="blue" d="M237,-2481.87C237,-2473.58 237,-2464.93 237,-2456.43"/>
<polygon fill="blue" stroke="blue" points="240.5,-2456.17 237,-2446.17 233.5,-2456.17 240.5,-2456.17"/>
</g>
<!-- 10010 -->
<g id="node11" class="node"><title>10010</title>
<polygon fill="none" stroke="black" points="309.438,-2304 164.562,-2304 164.562,-2198 309.438,-2198 309.438,-2304"/>
<text text-anchor="middle" x="237" y="-2288.8" font-family="Times,serif" font-size="14.00">60: DUP1</text>
<text text-anchor="middle" x="237" y="-2274.8" font-family="Times,serif" font-size="14.00">61: PUSH 8DA5CB5B</text>
<text text-anchor="middle" x="237" y="-2260.8" font-family="Times,serif" font-size="14.00">62: EQ</text>
<text text-anchor="middle" x="237" y="-2246.8" font-family="Times,serif" font-size="14.00">63: PUSH [tag] 11</text>
<text text-anchor="middle" x="237" y="-2232.8" font-family="Times,serif" font-size="14.00">64: JUMPI</text>
<text text-anchor="middle" x="237" y="-2218.8" font-family="Times,serif" font-size="14.00">Stack Sum: 0</text>
<text text-anchor="middle" x="237" y="-2204.8" font-family="Times,serif" font-size="14.00">Gas: 22</text>
</g>
<!-- 10009&#45;&gt;10010 -->
<g id="edge10" class="edge"><title>10009&#45;&gt;10010</title>
<path fill="none" stroke="blue" d="M237,-2339.87C237,-2331.58 237,-2322.93 237,-2314.43"/>
<polygon fill="blue" stroke="blue" points="240.5,-2314.17 237,-2304.17 233.5,-2314.17 240.5,-2314.17"/>
</g>
<!-- 10011 -->
<g id="node12" class="node"><title>10011</title>
<polygon fill="none" stroke="black" points="306.263,-2162 167.737,-2162 167.737,-2056 306.263,-2056 306.263,-2162"/>
<text text-anchor="middle" x="237" y="-2146.8" font-family="Times,serif" font-size="14.00">65: DUP1</text>
<text text-anchor="middle" x="237" y="-2132.8" font-family="Times,serif" font-size="14.00">66: PUSH 8EC488A0</text>
<text text-anchor="middle" x="237" y="-2118.8" font-family="Times,serif" font-size="14.00">67: EQ</text>
<text text-anchor="middle" x="237" y="-2104.8" font-family="Times,serif" font-size="14.00">68: PUSH [tag] 12</text>
<text text-anchor="middle" x="237" y="-2090.8" font-family="Times,serif" font-size="14.00">69: JUMPI</text>
<text text-anchor="middle" x="237" y="-2076.8" font-family="Times,serif" font-size="14.00">Stack Sum: 0</text>
<text text-anchor="middle" x="237" y="-2062.8" font-family="Times,serif" font-size="14.00">Gas: 22</text>
</g>
<!-- 10010&#45;&gt;10011 -->
<g id="edge11" class="edge"><title>10010&#45;&gt;10011</title>
<path fill="none" stroke="blue" d="M237,-2197.87C237,-2189.58 237,-2180.93 237,-2172.43"/>
<polygon fill="blue" stroke="blue" points="240.5,-2172.17 237,-2162.17 233.5,-2172.17 240.5,-2172.17"/>
</g>
<!-- 10012 -->
<g id="node13" class="node"><title>10012</title>
<polygon fill="none" stroke="black" points="305.518,-2020 168.482,-2020 168.482,-1914 305.518,-1914 305.518,-2020"/>
<text text-anchor="middle" x="237" y="-2004.8" font-family="Times,serif" font-size="14.00">70: DUP1</text>
<text text-anchor="middle" x="237" y="-1990.8" font-family="Times,serif" font-size="14.00">71: PUSH 8F03FE3E</text>
<text text-anchor="middle" x="237" y="-1976.8" font-family="Times,serif" font-size="14.00">72: EQ</text>
<text text-anchor="middle" x="237" y="-1962.8" font-family="Times,serif" font-size="14.00">73: PUSH [tag] 13</text>
<text text-anchor="middle" x="237" y="-1948.8" font-family="Times,serif" font-size="14.00">74: JUMPI</text>
<text text-anchor="middle" x="237" y="-1934.8" font-family="Times,serif" font-size="14.00">Stack Sum: 0</text>
<text text-anchor="middle" x="237" y="-1920.8" font-family="Times,serif" font-size="14.00">Gas: 22</text>
</g>
<!-- 10011&#45;&gt;10012 -->
<g id="edge12" class="edge"><title>10011&#45;&gt;10012</title>
<path fill="none" stroke="blue" d="M237,-2055.87C237,-2047.58 237,-2038.93 237,-2030.43"/>
<polygon fill="blue" stroke="blue" points="240.5,-2030.17 237,-2020.17 233.5,-2030.17 240.5,-2030.17"/>
</g>
<!-- 10013 -->
<g id="node14" class="node"><title>10013</title>
<polygon fill="none" stroke="black" points="307.441,-1878 166.559,-1878 166.559,-1772 307.441,-1772 307.441,-1878"/>
<text text-anchor="middle" x="237" y="-1862.8" font-family="Times,serif" font-size="14.00">75: DUP1</text>
<text text-anchor="middle" x="237" y="-1848.8" font-family="Times,serif" font-size="14.00">76: PUSH E46FFDB9</text>
<text text-anchor="middle" x="237" y="-1834.8" font-family="Times,serif" font-size="14.00">77: EQ</text>
<text text-anchor="middle" x="237" y="-1820.8" font-family="Times,serif" font-size="14.00">78: PUSH [tag] 14</text>
<text text-anchor="middle" x="237" y="-1806.8" font-family="Times,serif" font-size="14.00">79: JUMPI</text>
<text text-anchor="middle" x="237" y="-1792.8" font-family="Times,serif" font-size="14.00">Stack Sum: 0</text>
<text text-anchor="middle" x="237" y="-1778.8" font-family="Times,serif" font-size="14.00">Gas: 22</text>
</g>
<!-- 10012&#45;&gt;10013 -->
<g id="edge13" class="edge"><title>10012&#45;&gt;10013</title>
<path fill="none" stroke="blue" d="M237,-1913.87C237,-1905.58 237,-1896.93 237,-1888.43"/>
<polygon fill="blue" stroke="blue" points="240.5,-1888.17 237,-1878.17 233.5,-1888.17 240.5,-1888.17"/>
</g>
<!-- 14 -->
<g id="node15" class="node"><title>14</title>
<polygon fill="none" stroke="black" points="303.959,-1736 170.041,-1736 170.041,-1602 303.959,-1602 303.959,-1736"/>
<text text-anchor="middle" x="237" y="-1720.8" font-family="Times,serif" font-size="14.00">1051: tag 14</text>
<text text-anchor="middle" x="237" y="-1706.8" font-family="Times,serif" font-size="14.00">1052: JUMPDEST</text>
<text text-anchor="middle" x="237" y="-1692.8" font-family="Times,serif" font-size="14.00">1053: CALLVALUE</text>
<text text-anchor="middle" x="237" y="-1678.8" font-family="Times,serif" font-size="14.00">1054: DUP1</text>
<text text-anchor="middle" x="237" y="-1664.8" font-family="Times,serif" font-size="14.00">1055: ISZERO</text>
<text text-anchor="middle" x="237" y="-1650.8" font-family="Times,serif" font-size="14.00">1056: PUSH [tag] 54</text>
<text text-anchor="middle" x="237" y="-1636.8" font-family="Times,serif" font-size="14.00">1057: JUMPI</text>
<text text-anchor="middle" x="237" y="-1622.8" font-family="Times,serif" font-size="14.00">Stack Sum: 1</text>
<text text-anchor="middle" x="237" y="-1608.8" font-family="Times,serif" font-size="14.00">Gas: 22</text>
</g>
<!-- 10013&#45;&gt;14 -->
<g id="edge14" class="edge"><title>10013&#45;&gt;14</title>
<path fill="none" stroke="blue" d="M237,-1771.86C237,-1763.58 237,-1754.88 237,-1746.18"/>
<polygon fill="blue" stroke="blue" points="240.5,-1746.01 237,-1736.01 233.5,-1746.01 240.5,-1746.01"/>
</g>
<!-- 54 -->
<g id="node16" class="node"><title>54</title>
<polygon fill="none" stroke="black" points="438.096,-1566 35.904,-1566 35.904,-984 438.096,-984 438.096,-1566"/>
<text text-anchor="middle" x="237" y="-1550.8" font-family="Times,serif" font-size="14.00">1061: tag 54</text>
<text text-anchor="middle" x="237" y="-1536.8" font-family="Times,serif" font-size="14.00">1062: JUMPDEST</text>
<text text-anchor="middle" x="237" y="-1522.8" font-family="Times,serif" font-size="14.00">1063: POP</text>
<text text-anchor="middle" x="237" y="-1508.8" font-family="Times,serif" font-size="14.00">1064: PUSH [tag] 55</text>
<text text-anchor="middle" x="237" y="-1494.8" font-family="Times,serif" font-size="14.00">1065: PUSH 4</text>
<text text-anchor="middle" x="237" y="-1480.8" font-family="Times,serif" font-size="14.00">1066: DUP1</text>
<text text-anchor="middle" x="237" y="-1466.8" font-family="Times,serif" font-size="14.00">1067: CALLDATASIZE</text>
<text text-anchor="middle" x="237" y="-1452.8" font-family="Times,serif" font-size="14.00">1068: SUB</text>
<text text-anchor="middle" x="237" y="-1438.8" font-family="Times,serif" font-size="14.00">1069: DUP2</text>
<text text-anchor="middle" x="237" y="-1424.8" font-family="Times,serif" font-size="14.00">1070: ADD</text>
<text text-anchor="middle" x="237" y="-1410.8" font-family="Times,serif" font-size="14.00">1071: SWAP1</text>
<text text-anchor="middle" x="237" y="-1396.8" font-family="Times,serif" font-size="14.00">1072: DUP1</text>
<text text-anchor="middle" x="237" y="-1382.8" font-family="Times,serif" font-size="14.00">1073: DUP1</text>
<text text-anchor="middle" x="237" y="-1368.8" font-family="Times,serif" font-size="14.00">1074: CALLDATALOAD</text>
<text text-anchor="middle" x="237" y="-1354.8" font-family="Times,serif" font-size="14.00">1075: PUSH FFFFFFFFFFFFFFFFFFFFFFFFFFFFFFFFFFFFFFFF</text>
<text text-anchor="middle" x="237" y="-1340.8" font-family="Times,serif" font-size="14.00">1076: AND</text>
<text text-anchor="middle" x="237" y="-1326.8" font-family="Times,serif" font-size="14.00">1077: SWAP1</text>
<text text-anchor="middle" x="237" y="-1312.8" font-family="Times,serif" font-size="14.00">1078: PUSH 20</text>
<text text-anchor="middle" x="237" y="-1298.8" font-family="Times,serif" font-size="14.00">1079: ADD</text>
<text text-anchor="middle" x="237" y="-1284.8" font-family="Times,serif" font-size="14.00">1080: SWAP1</text>
<text text-anchor="middle" x="237" y="-1270.8" font-family="Times,serif" font-size="14.00">1081: SWAP3</text>
<text text-anchor="middle" x="237" y="-1256.8" font-family="Times,serif" font-size="14.00">1082: SWAP2</text>
<text text-anchor="middle" x="237" y="-1242.8" font-family="Times,serif" font-size="14.00">1083: SWAP1</text>
<text text-anchor="middle" x="237" y="-1228.8" font-family="Times,serif" font-size="14.00">1084: DUP1</text>
<text text-anchor="middle" x="237" y="-1214.8" font-family="Times,serif" font-size="14.00">1085: CALLDATALOAD</text>
<text text-anchor="middle" x="237" y="-1200.8" font-family="Times,serif" font-size="14.00">1086: PUSH FFFFFFFFFFFFFFFFFFFFFFFFFFFFFFFFFFFFFFFF</text>
<text text-anchor="middle" x="237" y="-1186.8" font-family="Times,serif" font-size="14.00">1087: AND</text>
<text text-anchor="middle" x="237" y="-1172.8" font-family="Times,serif" font-size="14.00">1088: SWAP1</text>
<text text-anchor="middle" x="237" y="-1158.8" font-family="Times,serif" font-size="14.00">1089: PUSH 20</text>
<text text-anchor="middle" x="237" y="-1144.8" font-family="Times,serif" font-size="14.00">1090: ADD</text>
<text text-anchor="middle" x="237" y="-1130.8" font-family="Times,serif" font-size="14.00">1091: SWAP1</text>
<text text-anchor="middle" x="237" y="-1116.8" font-family="Times,serif" font-size="14.00">1092: SWAP3</text>
<text text-anchor="middle" x="237" y="-1102.8" font-family="Times,serif" font-size="14.00">1093: SWAP2</text>
<text text-anchor="middle" x="237" y="-1088.8" font-family="Times,serif" font-size="14.00">1094: SWAP1</text>
<text text-anchor="middle" x="237" y="-1074.8" font-family="Times,serif" font-size="14.00">1095: POP</text>
<text text-anchor="middle" x="237" y="-1060.8" font-family="Times,serif" font-size="14.00">1096: POP</text>
<text text-anchor="middle" x="237" y="-1046.8" font-family="Times,serif" font-size="14.00">1097: POP</text>
<text text-anchor="middle" x="237" y="-1032.8" font-family="Times,serif" font-size="14.00">1098: PUSH [tag] 56</text>
<text text-anchor="middle" x="237" y="-1018.8" font-family="Times,serif" font-size="14.00">1099: JUMP</text>
<text text-anchor="middle" x="237" y="-1004.8" font-family="Times,serif" font-size="14.00">Stack Sum: 2</text>
<text text-anchor="middle" x="237" y="-990.8" font-family="Times,serif" font-size="14.00">Gas: 112</text>
</g>
<!-- 14&#45;&gt;54 -->
<g id="edge15" class="edge"><title>14&#45;&gt;54</title>
<path fill="none" stroke="blue" d="M237,-1601.95C237,-1593.94 237,-1585.41 237,-1576.47"/>
<polygon fill="blue" stroke="blue" points="240.5,-1576.2 237,-1566.2 233.5,-1576.2 240.5,-1576.2"/>
</g>
<!-- 56 -->
<g id="node17" class="node"><title>56</title>
<polygon fill="none" stroke="black" points="307.323,-948 166.677,-948 166.677,-786 307.323,-786 307.323,-948"/>
<text text-anchor="middle" x="237" y="-932.8" font-family="Times,serif" font-size="14.00">2474: tag 56</text>
<text text-anchor="middle" x="237" y="-918.8" font-family="Times,serif" font-size="14.00">2475: JUMPDEST</text>
<text text-anchor="middle" x="237" y="-904.8" font-family="Times,serif" font-size="14.00">2476: PUSH 0</text>
<text text-anchor="middle" x="237" y="-890.8" font-family="Times,serif" font-size="14.00">2477: PUSH 60</text>
<text text-anchor="middle" x="237" y="-876.8" font-family="Times,serif" font-size="14.00">2478: PUSH 0</text>
<text text-anchor="middle" x="237" y="-862.8" font-family="Times,serif" font-size="14.00">2479: PUSH [tag] 114</text>
<text text-anchor="middle" x="237" y="-848.8" font-family="Times,serif" font-size="14.00">2480: DUP6</text>
<text text-anchor="middle" x="237" y="-834.8" font-family="Times,serif" font-size="14.00">2481: PUSH [tag] 29</text>
<text text-anchor="middle" x="237" y="-820.8" font-family="Times,serif" font-size="14.00">2482: JUMP [in]</text>
<text text-anchor="middle" x="237" y="-806.8" font-family="Times,serif" font-size="14.00">Stack Sum: 5</text>
<text text-anchor="middle" x="237" y="-792.8" font-family="Times,serif" font-size="14.00">Gas: 27</text>
</g>
<!-- 54&#45;&gt;56 -->
<g id="edge16" class="edge"><title>54&#45;&gt;56</title>
<path fill="none" stroke="blue" d="M237,-983.8C237,-975.006 237,-966.482 237,-958.314"/>
<polygon fill="blue" stroke="blue" points="240.5,-958.165 237,-948.165 233.5,-958.165 240.5,-958.165"/>
</g>
<!-- 29 -->
<g id="node18" class="node"><title>29</title>
<polygon fill="none" stroke="black" points="438.096,-750 35.904,-750 35.904,-0 438.096,-0 438.096,-750"/>
<text text-anchor="middle" x="237" y="-734.8" font-family="Times,serif" font-size="14.00">1473: tag 29</text>
<text text-anchor="middle" x="237" y="-720.8" font-family="Times,serif" font-size="14.00">1474: JUMPDEST</text>
<text text-anchor="middle" x="237" y="-706.8" font-family="Times,serif" font-size="14.00">1475: PUSH 60</text>
<text text-anchor="middle" x="237" y="-692.8" font-family="Times,serif" font-size="14.00">1476: PUSH 2</text>
<text text-anchor="middle" x="237" y="-678.8" font-family="Times,serif" font-size="14.00">1477: PUSH 0</text>
<text text-anchor="middle" x="237" y="-664.8" font-family="Times,serif" font-size="14.00">1478: DUP4</text>
<text text-anchor="middle" x="237" y="-650.8" font-family="Times,serif" font-size="14.00">1479: PUSH FFFFFFFFFFFFFFFFFFFFFFFFFFFFFFFFFFFFFFFF</text>
<text text-anchor="middle" x="237" y="-636.8" font-family="Times,serif" font-size="14.00">1480: AND</text>
<text text-anchor="middle" x="237" y="-622.8" font-family="Times,serif" font-size="14.00">1481: PUSH FFFFFFFFFFFFFFFFFFFFFFFFFFFFFFFFFFFFFFFF</text>
<text text-anchor="middle" x="237" y="-608.8" font-family="Times,serif" font-size="14.00">1482: AND</text>
<text text-anchor="middle" x="237" y="-594.8" font-family="Times,serif" font-size="14.00">1483: DUP2</text>
<text text-anchor="middle" x="237" y="-580.8" font-family="Times,serif" font-size="14.00">1484: MSTORE</text>
<text text-anchor="middle" x="237" y="-566.8" font-family="Times,serif" font-size="14.00">1485: PUSH 20</text>
<text text-anchor="middle" x="237" y="-552.8" font-family="Times,serif" font-size="14.00">1486: ADD</text>
<text text-anchor="middle" x="237" y="-538.8" font-family="Times,serif" font-size="14.00">1487: SWAP1</text>
<text text-anchor="middle" x="237" y="-524.8" font-family="Times,serif" font-size="14.00">1488: DUP2</text>
<text text-anchor="middle" x="237" y="-510.8" font-family="Times,serif" font-size="14.00">1489: MSTORE</text>
<text text-anchor="middle" x="237" y="-496.8" font-family="Times,serif" font-size="14.00">1490: PUSH 20</text>
<text text-anchor="middle" x="237" y="-482.8" font-family="Times,serif" font-size="14.00">1491: ADD</text>
<text text-anchor="middle" x="237" y="-468.8" font-family="Times,serif" font-size="14.00">1492: PUSH 0</text>
<text text-anchor="middle" x="237" y="-454.8" font-family="Times,serif" font-size="14.00">1493: KECCAK256</text>
<text text-anchor="middle" x="237" y="-440.8" font-family="Times,serif" font-size="14.00">1494: DUP1</text>
<text text-anchor="middle" x="237" y="-426.8" font-family="Times,serif" font-size="14.00">1495: SLOAD</text>
<text text-anchor="middle" x="237" y="-412.8" font-family="Times,serif" font-size="14.00">1496: DUP1</text>
<text text-anchor="middle" x="237" y="-398.8" font-family="Times,serif" font-size="14.00">1497: PUSH 20</text>
<text text-anchor="middle" x="237" y="-384.8" font-family="Times,serif" font-size="14.00">1498: MUL</text>
<text text-anchor="middle" x="237" y="-370.8" font-family="Times,serif" font-size="14.00">1499: PUSH 20</text>
<text text-anchor="middle" x="237" y="-356.8" font-family="Times,serif" font-size="14.00">1500: ADD</text>
<text text-anchor="middle" x="237" y="-342.8" font-family="Times,serif" font-size="14.00">1501: PUSH 40</text>
<text text-anchor="middle" x="237" y="-328.8" font-family="Times,serif" font-size="14.00">1502: MLOAD</text>
<text text-anchor="middle" x="237" y="-314.8" font-family="Times,serif" font-size="14.00">1503: SWAP1</text>
<text text-anchor="middle" x="237" y="-300.8" font-family="Times,serif" font-size="14.00">1504: DUP2</text>
<text text-anchor="middle" x="237" y="-286.8" font-family="Times,serif" font-size="14.00">1505: ADD</text>
<text text-anchor="middle" x="237" y="-272.8" font-family="Times,serif" font-size="14.00">1506: PUSH 40</text>
<text text-anchor="middle" x="237" y="-258.8" font-family="Times,serif" font-size="14.00">1507: MSTORE</text>
<text text-anchor="middle" x="237" y="-244.8" font-family="Times,serif" font-size="14.00">1508: DUP1</text>
<text text-anchor="middle" x="237" y="-230.8" font-family="Times,serif" font-size="14.00">1509: SWAP3</text>
<text text-anchor="middle" x="237" y="-216.8" font-family="Times,serif" font-size="14.00">1510: SWAP2</text>
<text text-anchor="middle" x="237" y="-202.8" font-family="Times,serif" font-size="14.00">1511: SWAP1</text>
<text text-anchor="middle" x="237" y="-188.8" font-family="Times,serif" font-size="14.00">1512: DUP2</text>
<text text-anchor="middle" x="237" y="-174.8" font-family="Times,serif" font-size="14.00">1513: DUP2</text>
<text text-anchor="middle" x="237" y="-160.8" font-family="Times,serif" font-size="14.00">1514: MSTORE</text>
<text text-anchor="middle" x="237" y="-146.8" font-family="Times,serif" font-size="14.00">1515: PUSH 20</text>
<text text-anchor="middle" x="237" y="-132.8" font-family="Times,serif" font-size="14.00">1516: ADD</text>
<text text-anchor="middle" x="237" y="-118.8" font-family="Times,serif" font-size="14.00">1517: DUP3</text>
<text text-anchor="middle" x="237" y="-104.8" font-family="Times,serif" font-size="14.00">1518: DUP1</text>
<text text-anchor="middle" x="237" y="-90.8" font-family="Times,serif" font-size="14.00">1519: SLOAD</text>
<text text-anchor="middle" x="237" y="-76.8" font-family="Times,serif" font-size="14.00">1520: DUP1</text>
<text text-anchor="middle" x="237" y="-62.8" font-family="Times,serif" font-size="14.00">1521: ISZERO</text>
<text text-anchor="middle" x="237" y="-48.8" font-family="Times,serif" font-size="14.00">1522: PUSH [tag] 75</text>
<text text-anchor="middle" x="237" y="-34.8" font-family="Times,serif" font-size="14.00">1523: JUMPI</text>
<text text-anchor="middle" x="237" y="-20.8" font-family="Times,serif" font-size="14.00">Stack Sum: 7</text>
<text text-anchor="middle" x="237" y="-6.8" font-family="Times,serif" font-size="14.00">Gas: 578</text>
</g>
<!-- 56&#45;&gt;29 -->
<g id="edge17" class="edge"><title>56&#45;&gt;29</title>
<path fill="none" stroke="blue" d="M237,-785.909C237,-777.826 237,-769.296 237,-760.398"/>
<polygon fill="blue" stroke="blue" points="240.5,-760.2 237,-750.2 233.5,-760.2 240.5,-760.2"/>
</g>
</g>
</svg>
