<?xml version="1.0" encoding="UTF-8" standalone="no"?>
<!DOCTYPE svg PUBLIC "-//W3C//DTD SVG 1.1//EN"
 "http://www.w3.org/Graphics/SVG/1.1/DTD/svg11.dtd">
<!-- Generated by graphviz version 2.36.0 (20140111.2315)
 -->
<!-- Title: %3 Pages: 1 -->
<svg width="728pt" height="1334pt"
 viewBox="0.00 0.00 728.34 1334.00" xmlns="http://www.w3.org/2000/svg" xmlns:xlink="http://www.w3.org/1999/xlink">
<g id="graph0" class="graph" transform="scale(1 1) rotate(0) translate(4 1330)">
<title>%3</title>
<polygon fill="white" stroke="none" points="-4,4 -4,-1330 724.345,-1330 724.345,4 -4,4"/>
<!-- [85] -->
<g id="node1" class="node"><title>[85]</title>
<ellipse fill="none" stroke="black" cx="574" cy="-18" rx="69.3374" ry="18"/>
<text text-anchor="middle" x="574" y="-13.8" font-family="Times,serif" font-size="14.00">JUMPDEST[85]</text>
</g>
<!-- [114] -->
<g id="node2" class="node"><title>[114]</title>
<ellipse fill="none" stroke="black" cx="110" cy="-534" rx="73.4841" ry="18"/>
<text text-anchor="middle" x="110" y="-529.8" font-family="Times,serif" font-size="14.00">JUMPDEST[114]</text>
</g>
<!-- [123] -->
<g id="node3" class="node"><title>[123]</title>
<ellipse fill="none" stroke="black" cx="239" cy="-276" rx="73.4703" ry="18"/>
<text text-anchor="middle" x="239" y="-271.8" font-family="Times,serif" font-size="14.00">JUMPDEST[123]</text>
</g>
<!-- [124] -->
<g id="node4" class="node"><title>[124]</title>
<ellipse fill="none" stroke="black" cx="405" cy="-276" rx="73.4703" ry="18"/>
<text text-anchor="middle" x="405" y="-271.8" font-family="Times,serif" font-size="14.00">JUMPDEST[124]</text>
</g>
<!-- [136] -->
<g id="node5" class="node"><title>[136]</title>
<ellipse fill="none" stroke="black" cx="182" cy="-18" rx="73.4703" ry="18"/>
<text text-anchor="middle" x="182" y="-13.8" font-family="Times,serif" font-size="14.00">JUMPDEST[136]</text>
</g>
<!-- [87] -->
<g id="node6" class="node"><title>[87]</title>
<ellipse fill="none" stroke="black" cx="409" cy="-1222" rx="27" ry="18"/>
<text text-anchor="middle" x="409" y="-1217.8" font-family="Times,serif" font-size="14.00">1</text>
</g>
<!-- [87]&#45;&gt;[87] -->
<g id="edge5" class="edge"><title>[87]&#45;&gt;[87]</title>
<path fill="none" stroke="black" d="M433.532,-1229.75C444.508,-1230.49 454,-1227.91 454,-1222 454,-1218.03 449.715,-1215.56 443.574,-1214.59"/>
<polygon fill="black" stroke="black" points="443.647,-1211.09 433.532,-1214.25 443.406,-1218.09 443.647,-1211.09"/>
<text text-anchor="middle" x="493.276" y="-1217.8" font-family="Times,serif" font-size="14.00">step5ISZERO</text>
</g>
<!-- [88] -->
<g id="node7" class="node"><title>[88]</title>
<ellipse fill="none" stroke="black" cx="423" cy="-1136" rx="27" ry="18"/>
<text text-anchor="middle" x="423" y="-1131.8" font-family="Times,serif" font-size="14.00">2</text>
</g>
<!-- [87]&#45;&gt;[88] -->
<g id="edge3" class="edge"><title>[87]&#45;&gt;[88]</title>
<path fill="none" stroke="red" d="M392.692,-1207.2C383.39,-1197.57 374.638,-1184.29 380.441,-1172 383.644,-1165.22 388.874,-1159.31 394.591,-1154.38"/>
<polygon fill="red" stroke="red" points="396.751,-1157.13 402.543,-1148.26 392.483,-1151.58 396.751,-1157.13"/>
<text text-anchor="middle" x="413.279" y="-1174.8" font-family="Times,serif" font-size="14.00">step3DUP2</text>
</g>
<!-- [92] -->
<g id="node8" class="node"><title>[92]</title>
<ellipse fill="none" stroke="black" cx="132" cy="-1136" rx="27" ry="18"/>
<text text-anchor="middle" x="132" y="-1131.8" font-family="Times,serif" font-size="14.00">2</text>
</g>
<!-- [87]&#45;&gt;[92] -->
<g id="edge6" class="edge"><title>[87]&#45;&gt;[92]</title>
<path fill="none" stroke="red" d="M384.903,-1213.69C335.483,-1198.71 222.545,-1164.46 165.822,-1147.26"/>
<polygon fill="red" stroke="red" points="166.824,-1143.9 156.239,-1144.35 164.793,-1150.6 166.824,-1143.9"/>
<text text-anchor="middle" x="324.172" y="-1174.8" font-family="Times,serif" font-size="14.00">step6PUSH1</text>
</g>
<!-- [88]&#45;&gt;[87] -->
<g id="edge4" class="edge"><title>[88]&#45;&gt;[87]</title>
<path fill="none" stroke="green" d="M436.54,-1151.94C443.607,-1161.6 449.863,-1174.49 445,-1186 442.609,-1191.66 438.807,-1196.85 434.551,-1201.41"/>
<polygon fill="green" stroke="green" points="431.977,-1199.03 427.131,-1208.45 436.794,-1204.11 431.977,-1199.03"/>
<text text-anchor="middle" x="469.685" y="-1174.8" font-family="Times,serif" font-size="14.00">step4LT</text>
</g>
<!-- [92]&#45;&gt;[136] -->
<g id="edge7" class="edge"><title>[92]&#45;&gt;[136]</title>
<path fill="none" stroke="black" d="M106.236,-1130.6C67.8213,-1122.39 0,-1100.84 0,-1051 0,-1051 0,-1051 0,-103 0,-54.8152 53.241,-34.1804 102.131,-25.3897"/>
<polygon fill="black" stroke="black" points="102.858,-28.8172 112.155,-23.7363 101.718,-21.9105 102.858,-28.8172"/>
<text text-anchor="middle" x="35.0034" y="-572.8" font-family="Times,serif" font-size="14.00">step7JUMPI</text>
</g>
<!-- [95] -->
<g id="node9" class="node"><title>[95]</title>
<ellipse fill="none" stroke="black" cx="132" cy="-1050" rx="27" ry="18"/>
<text text-anchor="middle" x="132" y="-1045.8" font-family="Times,serif" font-size="14.00">3</text>
</g>
<!-- [92]&#45;&gt;[95] -->
<g id="edge8" class="edge"><title>[92]&#45;&gt;[95]</title>
<path fill="none" stroke="red" d="M132,-1117.6C132,-1106.26 132,-1091.23 132,-1078.32"/>
<polygon fill="red" stroke="red" points="135.5,-1078.1 132,-1068.1 128.5,-1078.1 135.5,-1078.1"/>
<text text-anchor="middle" x="168.172" y="-1088.8" font-family="Times,serif" font-size="14.00">step8PUSH1</text>
</g>
<!-- [95]&#45;&gt;[95] -->
<g id="edge11" class="edge"><title>[95]&#45;&gt;[95]</title>
<path fill="none" stroke="black" d="M156.532,-1057.75C167.508,-1058.49 177,-1055.91 177,-1050 177,-1046.03 172.715,-1043.56 166.574,-1042.59"/>
<polygon fill="black" stroke="black" points="166.647,-1039.09 156.532,-1042.25 166.406,-1046.09 166.647,-1039.09"/>
<text text-anchor="middle" x="219.776" y="-1045.8" font-family="Times,serif" font-size="14.00">step12ISZERO</text>
</g>
<!-- [96] -->
<g id="node10" class="node"><title>[96]</title>
<ellipse fill="none" stroke="black" cx="99" cy="-964" rx="27" ry="18"/>
<text text-anchor="middle" x="99" y="-959.8" font-family="Times,serif" font-size="14.00">4</text>
</g>
<!-- [95]&#45;&gt;[96] -->
<g id="edge9" class="edge"><title>[95]&#45;&gt;[96]</title>
<path fill="none" stroke="red" d="M105.532,-1046.11C85.3264,-1042.36 58.7631,-1033.76 45.4414,-1014 36.1078,-1000.16 50.7746,-987.521 67.1026,-978.548"/>
<polygon fill="red" stroke="red" points="68.8519,-981.586 76.2027,-973.956 65.6982,-975.337 68.8519,-981.586"/>
<text text-anchor="middle" x="78.2793" y="-1002.8" font-family="Times,serif" font-size="14.00">step9DUP1</text>
</g>
<!-- [101] -->
<g id="node11" class="node"><title>[101]</title>
<ellipse fill="none" stroke="black" cx="210" cy="-964" rx="27" ry="18"/>
<text text-anchor="middle" x="210" y="-959.8" font-family="Times,serif" font-size="14.00">4</text>
</g>
<!-- [95]&#45;&gt;[101] -->
<g id="edge12" class="edge"><title>[95]&#45;&gt;[101]</title>
<path fill="none" stroke="red" d="M150.14,-1036.46C158.5,-1030.22 168.26,-1022.26 176,-1014 182.862,-1006.67 189.402,-997.871 194.88,-989.759"/>
<polygon fill="red" stroke="red" points="197.845,-991.62 200.373,-981.331 191.981,-987.798 197.845,-991.62"/>
<text text-anchor="middle" x="227.672" y="-1002.8" font-family="Times,serif" font-size="14.00">step13PUSH1</text>
</g>
<!-- [96]&#45;&gt;[95] -->
<g id="edge10" class="edge"><title>[96]&#45;&gt;[95]</title>
<path fill="none" stroke="green" d="M105.506,-981.561C110.113,-993.288 116.388,-1009.26 121.674,-1022.72"/>
<polygon fill="green" stroke="green" points="118.566,-1024.38 125.48,-1032.4 125.081,-1021.82 118.566,-1024.38"/>
<text text-anchor="middle" x="145.351" y="-1002.8" font-family="Times,serif" font-size="14.00">step11EQ</text>
</g>
<!-- [101]&#45;&gt;[114] -->
<g id="edge13" class="edge"><title>[101]&#45;&gt;[114]</title>
<path fill="none" stroke="black" d="M184.403,-957.856C147.832,-948.844 85,-926.455 85,-879 85,-879 85,-879 85,-619 85,-599.091 91.5308,-577.59 97.9165,-561.325"/>
<polygon fill="black" stroke="black" points="101.213,-562.513 101.814,-551.936 94.7477,-559.83 101.213,-562.513"/>
<text text-anchor="middle" x="123.503" y="-744.8" font-family="Times,serif" font-size="14.00">step14JUMPI</text>
</g>
<!-- [104] -->
<g id="node12" class="node"><title>[104]</title>
<ellipse fill="none" stroke="black" cx="277" cy="-878" rx="27" ry="18"/>
<text text-anchor="middle" x="277" y="-873.8" font-family="Times,serif" font-size="14.00">5</text>
</g>
<!-- [101]&#45;&gt;[104] -->
<g id="edge14" class="edge"><title>[101]&#45;&gt;[104]</title>
<path fill="none" stroke="red" d="M222.289,-947.593C232.394,-934.923 246.875,-916.769 258.4,-902.319"/>
<polygon fill="red" stroke="red" points="261.29,-904.309 264.789,-894.309 255.817,-899.945 261.29,-904.309"/>
<text text-anchor="middle" x="287.672" y="-916.8" font-family="Times,serif" font-size="14.00">step15PUSH1</text>
</g>
<!-- [106] -->
<g id="node13" class="node"><title>[106]</title>
<ellipse fill="none" stroke="black" cx="277" cy="-792" rx="27" ry="18"/>
<text text-anchor="middle" x="277" y="-787.8" font-family="Times,serif" font-size="14.00">6</text>
</g>
<!-- [104]&#45;&gt;[106] -->
<g id="edge15" class="edge"><title>[104]&#45;&gt;[106]</title>
<path fill="none" stroke="red" d="M277,-859.595C277,-848.257 277,-833.227 277,-820.315"/>
<polygon fill="red" stroke="red" points="280.5,-820.095 277,-810.095 273.5,-820.095 280.5,-820.095"/>
<text text-anchor="middle" x="316.672" y="-830.8" font-family="Times,serif" font-size="14.00">step16PUSH1</text>
</g>
<!-- [107] -->
<g id="node14" class="node"><title>[107]</title>
<ellipse fill="none" stroke="black" cx="285" cy="-706" rx="27" ry="18"/>
<text text-anchor="middle" x="285" y="-701.8" font-family="Times,serif" font-size="14.00">7</text>
</g>
<!-- [104]&#45;&gt;[107] -->
<g id="edge19" class="edge"><title>[104]&#45;&gt;[107]</title>
<path fill="none" stroke="green" d="M303.209,-873.622C322.499,-869.613 347.462,-860.894 360,-842 372.579,-823.043 430.103,-854.412 357,-742 348.647,-729.155 334.136,-720.882 320.32,-715.626"/>
<polygon fill="green" stroke="green" points="321.074,-712.187 310.48,-712.31 318.838,-718.82 321.074,-712.187"/>
<text text-anchor="middle" x="424.117" y="-787.8" font-family="Times,serif" font-size="14.00">step20POP</text>
</g>
<!-- [106]&#45;&gt;[107] -->
<g id="edge16" class="edge"><title>[106]&#45;&gt;[107]</title>
<path fill="none" stroke="red" d="M278.619,-774.001C279.703,-762.616 281.155,-747.376 282.399,-734.308"/>
<polygon fill="red" stroke="red" points="285.92,-734.26 283.383,-723.973 278.951,-733.596 285.92,-734.26"/>
<text text-anchor="middle" x="317.779" y="-744.8" font-family="Times,serif" font-size="14.00">step17DUP2</text>
</g>
<!-- [107]&#45;&gt;[106] -->
<g id="edge18" class="edge"><title>[107]&#45;&gt;[106]</title>
<path fill="none" stroke="black" d="M257.879,-708.66C235.19,-711.649 204.108,-719.832 188.57,-742 172.687,-764.663 209.916,-777.997 240.857,-784.897"/>
<polygon fill="black" stroke="black" points="240.522,-788.402 251.023,-786.994 241.936,-781.546 240.522,-788.402"/>
<text text-anchor="middle" x="233.215" y="-744.8" font-family="Times,serif" font-size="14.00">step19SSTORE</text>
</g>
<!-- [107]&#45;&gt;[107] -->
<g id="edge17" class="edge"><title>[107]&#45;&gt;[107]</title>
<path fill="none" stroke="black" d="M309.532,-713.752C320.508,-714.49 330,-711.906 330,-706 330,-702.032 325.715,-699.563 319.574,-698.594"/>
<polygon fill="black" stroke="black" points="319.647,-695.095 309.532,-698.248 319.406,-702.091 319.647,-695.095"/>
<text text-anchor="middle" x="370.448" y="-701.8" font-family="Times,serif" font-size="14.00">step18SWAP1</text>
</g>
<!-- [112] -->
<g id="node15" class="node"><title>[112]</title>
<ellipse fill="none" stroke="black" cx="260" cy="-620" rx="27" ry="18"/>
<text text-anchor="middle" x="260" y="-615.8" font-family="Times,serif" font-size="14.00">5</text>
</g>
<!-- [107]&#45;&gt;[112] -->
<g id="edge20" class="edge"><title>[107]&#45;&gt;[112]</title>
<path fill="none" stroke="red" d="M279.941,-688.001C276.518,-676.502 271.926,-661.071 268.011,-647.916"/>
<polygon fill="red" stroke="red" points="271.259,-646.559 265.052,-637.973 264.55,-648.556 271.259,-646.559"/>
<text text-anchor="middle" x="313.672" y="-658.8" font-family="Times,serif" font-size="14.00">step21PUSH1</text>
</g>
<!-- [112]&#45;&gt;[114] -->
<g id="edge22" class="edge"><title>[112]&#45;&gt;[114]</title>
<path fill="none" stroke="black" d="M233.523,-615.893C197.052,-611.057 134.102,-600.533 118.655,-584 113.16,-578.119 110.519,-570.028 109.381,-562.115"/>
<polygon fill="black" stroke="black" points="112.863,-561.732 108.639,-552.016 105.882,-562.245 112.863,-561.732"/>
<text text-anchor="middle" x="172.672" y="-572.8" font-family="Times,serif" font-size="14.00">step23JUMPDEST</text>
</g>
<!-- [112]&#45;&gt;[123] -->
<g id="edge21" class="edge"><title>[112]&#45;&gt;[123]</title>
<path fill="none" stroke="black" d="M253.562,-602.226C247.715,-585.467 240,-558.836 240,-535 240,-535 240,-535 240,-361 240,-341.978 239.74,-320.534 239.486,-304.074"/>
<polygon fill="black" stroke="black" points="242.985,-303.994 239.322,-294.053 235.986,-304.109 242.985,-303.994"/>
<text text-anchor="middle" x="276.172" y="-443.8" font-family="Times,serif" font-size="14.00">step22JUMP</text>
</g>
<!-- [116] -->
<g id="node16" class="node"><title>[116]</title>
<ellipse fill="none" stroke="black" cx="371" cy="-534" rx="27" ry="18"/>
<text text-anchor="middle" x="371" y="-529.8" font-family="Times,serif" font-size="14.00">6</text>
</g>
<!-- [112]&#45;&gt;[116] -->
<g id="edge23" class="edge"><title>[112]&#45;&gt;[116]</title>
<path fill="none" stroke="red" d="M277.344,-605.875C295.672,-592.005 324.76,-569.993 345.657,-554.179"/>
<polygon fill="red" stroke="red" points="347.916,-556.858 353.778,-548.033 343.692,-551.276 347.916,-556.858"/>
<text text-anchor="middle" x="362.672" y="-572.8" font-family="Times,serif" font-size="14.00">step24PUSH1</text>
</g>
<!-- [118] -->
<g id="node17" class="node"><title>[118]</title>
<ellipse fill="none" stroke="black" cx="371" cy="-448" rx="27" ry="18"/>
<text text-anchor="middle" x="371" y="-443.8" font-family="Times,serif" font-size="14.00">7</text>
</g>
<!-- [116]&#45;&gt;[118] -->
<g id="edge24" class="edge"><title>[116]&#45;&gt;[118]</title>
<path fill="none" stroke="red" d="M371,-515.595C371,-504.257 371,-489.227 371,-476.315"/>
<polygon fill="red" stroke="red" points="374.5,-476.095 371,-466.095 367.5,-476.095 374.5,-476.095"/>
<text text-anchor="middle" x="410.672" y="-486.8" font-family="Times,serif" font-size="14.00">step25PUSH1</text>
</g>
<!-- [119] -->
<g id="node18" class="node"><title>[119]</title>
<ellipse fill="none" stroke="black" cx="398" cy="-362" rx="27" ry="18"/>
<text text-anchor="middle" x="398" y="-357.8" font-family="Times,serif" font-size="14.00">8</text>
</g>
<!-- [116]&#45;&gt;[119] -->
<g id="edge28" class="edge"><title>[116]&#45;&gt;[119]</title>
<path fill="none" stroke="green" d="M397.118,-529.196C416.094,-524.97 440.692,-516.166 454,-498 480.349,-462.032 484.739,-436.352 462,-398 455.39,-386.851 443.836,-379.023 432.348,-373.642"/>
<polygon fill="green" stroke="green" points="433.401,-370.289 422.824,-369.678 430.711,-376.751 433.401,-370.289"/>
<text text-anchor="middle" x="508.117" y="-443.8" font-family="Times,serif" font-size="14.00">step29POP</text>
</g>
<!-- [118]&#45;&gt;[119] -->
<g id="edge25" class="edge"><title>[118]&#45;&gt;[119]</title>
<path fill="none" stroke="red" d="M376.464,-430.001C380.221,-418.312 385.285,-402.559 389.558,-389.265"/>
<polygon fill="red" stroke="red" points="392.908,-390.278 392.636,-379.687 386.244,-388.136 392.908,-390.278"/>
<text text-anchor="middle" x="422.779" y="-400.8" font-family="Times,serif" font-size="14.00">step26DUP2</text>
</g>
<!-- [119]&#45;&gt;[123] -->
<g id="edge29" class="edge"><title>[119]&#45;&gt;[123]</title>
<path fill="none" stroke="black" d="M372.366,-356.014C349.733,-350.85 316.423,-341.345 290.655,-326 279.648,-319.445 269.087,-310.167 260.415,-301.444"/>
<polygon fill="black" stroke="black" points="262.752,-298.823 253.317,-294.004 257.688,-303.656 262.752,-298.823"/>
<text text-anchor="middle" x="344.672" y="-314.8" font-family="Times,serif" font-size="14.00">step30JUMPDEST</text>
</g>
<!-- [119]&#45;&gt;[124] -->
<g id="edge30" class="edge"><title>[119]&#45;&gt;[124]</title>
<path fill="none" stroke="black" d="M399.417,-344.001C400.359,-332.691 401.619,-317.576 402.703,-304.566"/>
<polygon fill="black" stroke="black" points="406.219,-304.518 403.562,-294.262 399.243,-303.936 406.219,-304.518"/>
<text text-anchor="middle" x="455.672" y="-314.8" font-family="Times,serif" font-size="14.00">step31JUMPDEST</text>
</g>
<!-- [119]&#45;&gt;[118] -->
<g id="edge27" class="edge"><title>[119]&#45;&gt;[118]</title>
<path fill="none" stroke="black" d="M370.828,-363.434C345.432,-365.465 308.778,-372.919 290.57,-398 286.915,-403.035 287.159,-406.796 290.57,-412 296.14,-420.499 317.76,-429.648 337.183,-436.46"/>
<polygon fill="black" stroke="black" points="336.156,-439.808 346.751,-439.698 338.401,-433.177 336.156,-439.808"/>
<text text-anchor="middle" x="335.215" y="-400.8" font-family="Times,serif" font-size="14.00">step28SSTORE</text>
</g>
<!-- [119]&#45;&gt;[119] -->
<g id="edge26" class="edge"><title>[119]&#45;&gt;[119]</title>
<path fill="none" stroke="black" d="M422.532,-369.752C433.508,-370.49 443,-367.906 443,-362 443,-358.032 438.715,-355.563 432.574,-354.594"/>
<polygon fill="black" stroke="black" points="432.647,-351.095 422.532,-354.248 432.406,-358.091 432.647,-351.095"/>
<text text-anchor="middle" x="483.448" y="-357.8" font-family="Times,serif" font-size="14.00">step27SWAP1</text>
</g>
<!-- [125] -->
<g id="node19" class="node"><title>[125]</title>
<ellipse fill="none" stroke="black" cx="529" cy="-276" rx="27" ry="18"/>
<text text-anchor="middle" x="529" y="-271.8" font-family="Times,serif" font-size="14.00">6</text>
</g>
<!-- [119]&#45;&gt;[125] -->
<g id="edge31" class="edge"><title>[119]&#45;&gt;[125]</title>
<path fill="none" stroke="red" d="M425.137,-359.307C450.415,-356.337 487.619,-348.203 511,-326 517.192,-320.12 521.264,-311.931 523.938,-303.929"/>
<polygon fill="red" stroke="red" points="527.37,-304.65 526.632,-294.081 520.618,-302.803 527.37,-304.65"/>
<text text-anchor="middle" x="556.779" y="-314.8" font-family="Times,serif" font-size="14.00">step32DUP1</text>
</g>
<!-- [126] -->
<g id="node20" class="node"><title>[126]</title>
<ellipse fill="none" stroke="black" cx="390" cy="-190" rx="27" ry="18"/>
<text text-anchor="middle" x="390" y="-185.8" font-family="Times,serif" font-size="14.00">7</text>
</g>
<!-- [125]&#45;&gt;[126] -->
<g id="edge32" class="edge"><title>[125]&#45;&gt;[126]</title>
<path fill="none" stroke="red" d="M509.673,-263.32C485.947,-248.983 445.52,-224.551 418.295,-208.099"/>
<polygon fill="red" stroke="red" points="419.98,-205.028 409.611,-202.851 416.36,-211.019 419.98,-205.028"/>
<text text-anchor="middle" x="503.779" y="-228.8" font-family="Times,serif" font-size="14.00">step33DUP1</text>
</g>
<!-- [126]&#45;&gt;[126] -->
<g id="edge35" class="edge"><title>[126]&#45;&gt;[126]</title>
<path fill="none" stroke="black" d="M414.532,-197.752C425.508,-198.49 435,-195.906 435,-190 435,-186.032 430.715,-183.563 424.574,-182.594"/>
<polygon fill="black" stroke="black" points="424.647,-179.095 414.532,-182.248 424.406,-186.091 424.647,-179.095"/>
<text text-anchor="middle" x="475.448" y="-185.8" font-family="Times,serif" font-size="14.00">step36SWAP2</text>
</g>
<!-- [128] -->
<g id="node21" class="node"><title>[128]</title>
<ellipse fill="none" stroke="black" cx="296" cy="-104" rx="27" ry="18"/>
<text text-anchor="middle" x="296" y="-99.8" font-family="Times,serif" font-size="14.00">8</text>
</g>
<!-- [126]&#45;&gt;[128] -->
<g id="edge33" class="edge"><title>[126]&#45;&gt;[128]</title>
<path fill="none" stroke="red" d="M370.564,-177.036C360.874,-170.693 349.214,-162.473 339.655,-154 330.868,-146.211 322.081,-136.752 314.717,-128.229"/>
<polygon fill="red" stroke="red" points="317.263,-125.819 308.141,-120.431 311.912,-130.332 317.263,-125.819"/>
<text text-anchor="middle" x="379.672" y="-142.8" font-family="Times,serif" font-size="14.00">step34PUSH1</text>
</g>
<!-- [126]&#45;&gt;[128] -->
<g id="edge36" class="edge"><title>[126]&#45;&gt;[128]</title>
<path fill="none" stroke="green" d="M406.721,-175.593C417.33,-165.444 427.578,-151.36 419,-140 408.497,-126.091 364.61,-116.078 332.24,-110.414"/>
<polygon fill="green" stroke="green" points="332.633,-106.931 322.192,-108.728 331.475,-113.834 332.633,-106.931"/>
<text text-anchor="middle" x="454.117" y="-142.8" font-family="Times,serif" font-size="14.00">step37POP</text>
</g>
<!-- [134] -->
<g id="node22" class="node"><title>[134]</title>
<ellipse fill="none" stroke="black" cx="526" cy="-104" rx="27" ry="18"/>
<text text-anchor="middle" x="526" y="-99.8" font-family="Times,serif" font-size="14.00">6</text>
</g>
<!-- [126]&#45;&gt;[134] -->
<g id="edge38" class="edge"><title>[126]&#45;&gt;[134]</title>
<path fill="none" stroke="red" d="M415.941,-184.177C437.141,-179.269 467.083,-170.045 489,-154 497.902,-147.483 505.654,-138.226 511.731,-129.51"/>
<polygon fill="red" stroke="red" points="514.689,-131.382 517.229,-121.096 508.829,-127.552 514.689,-131.382"/>
<text text-anchor="middle" x="543.672" y="-142.8" font-family="Times,serif" font-size="14.00">step39PUSH1</text>
</g>
<!-- [128]&#45;&gt;[126] -->
<g id="edge34" class="edge"><title>[128]&#45;&gt;[126]</title>
<path fill="none" stroke="green" d="M269.141,-106.065C222.666,-108.85 134.973,-118.802 165.117,-154 188.829,-181.687 295.186,-187.645 352.735,-188.814"/>
<polygon fill="green" stroke="green" points="352.826,-192.315 362.882,-188.98 352.941,-185.316 352.826,-192.315"/>
<text text-anchor="middle" x="199.441" y="-142.8" font-family="Times,serif" font-size="14.00">step35ADD</text>
</g>
<!-- [128]&#45;&gt;[126] -->
<g id="edge37" class="edge"><title>[128]&#45;&gt;[126]</title>
<path fill="none" stroke="green" d="M277.274,-116.968C264.022,-126.943 250.173,-141.49 259.766,-154 271.159,-168.859 319.158,-178.814 353.571,-184.192"/>
<polygon fill="green" stroke="green" points="353.351,-187.698 363.759,-185.714 354.386,-180.775 353.351,-187.698"/>
<text text-anchor="middle" x="291.117" y="-142.8" font-family="Times,serif" font-size="14.00">step38POP</text>
</g>
<!-- [134]&#45;&gt;[85] -->
<g id="edge39" class="edge"><title>[134]&#45;&gt;[85]</title>
<path fill="none" stroke="black" d="M525.824,-85.7316C526.404,-75.8921 528.317,-63.6421 533.655,-54 536.002,-49.7612 539.071,-45.7947 542.471,-42.1659"/>
<polygon fill="black" stroke="black" points="544.949,-44.6389 549.786,-35.2125 540.126,-39.5652 544.949,-44.6389"/>
<text text-anchor="middle" x="570.172" y="-56.8" font-family="Times,serif" font-size="14.00">step40JUMP</text>
</g>
<!-- [134]&#45;&gt;[136] -->
<g id="edge40" class="edge"><title>[134]&#45;&gt;[136]</title>
<path fill="none" stroke="black" d="M500.983,-96.8913C447.049,-83.7214 318.536,-52.3401 242.104,-33.6766"/>
<polygon fill="black" stroke="black" points="242.681,-30.2146 232.136,-31.2425 241.02,-37.0148 242.681,-30.2146"/>
<text text-anchor="middle" x="428.672" y="-56.8" font-family="Times,serif" font-size="14.00">step41JUMPDEST</text>
</g>
<!-- 0 -->
<g id="node23" class="node"><title>0</title>
<ellipse fill="none" stroke="black" cx="545" cy="-1308" rx="27" ry="18"/>
<text text-anchor="middle" x="545" y="-1303.8" font-family="Times,serif" font-size="14.00">0</text>
</g>
<!-- 0&#45;&gt;[85] -->
<g id="edge1" class="edge"><title>0&#45;&gt;[85]</title>
<path fill="none" stroke="black" d="M565.099,-1295.94C587.315,-1282.06 620,-1256.04 620,-1223 620,-1223 620,-1223 620,-103 620,-80.3508 617.046,-73.7728 606,-54 603.922,-50.2804 601.376,-46.6344 598.637,-43.1842"/>
<polygon fill="black" stroke="black" points="601.216,-40.8151 592.024,-35.5467 595.924,-45.3975 601.216,-40.8151"/>
<text text-anchor="middle" x="670.172" y="-658.8" font-family="Times,serif" font-size="14.00">step1JUMPDEST</text>
</g>
<!-- 0&#45;&gt;[87] -->
<g id="edge2" class="edge"><title>0&#45;&gt;[87]</title>
<path fill="none" stroke="red" d="M525.803,-1295.14C502.617,-1280.82 463.431,-1256.62 436.907,-1240.24"/>
<polygon fill="red" stroke="red" points="438.447,-1237.07 428.099,-1234.8 434.768,-1243.03 438.447,-1237.07"/>
<text text-anchor="middle" x="522.172" y="-1260.8" font-family="Times,serif" font-size="14.00">step2PUSH1</text>
</g>
</g>
</svg>
