<?xml version="1.0" encoding="UTF-8" standalone="no"?>
<!DOCTYPE svg PUBLIC "-//W3C//DTD SVG 1.1//EN"
 "http://www.w3.org/Graphics/SVG/1.1/DTD/svg11.dtd">
<!-- Generated by graphviz version 2.36.0 (20140111.2315)
 -->
<!-- Title: %3 Pages: 1 -->
<svg width="451pt" height="3744pt"
 viewBox="0.00 0.00 451.34 3744.00" xmlns="http://www.w3.org/2000/svg" xmlns:xlink="http://www.w3.org/1999/xlink">
<g id="graph0" class="graph" transform="scale(1 1) rotate(0) translate(4 3740)">
<title>%3</title>
<polygon fill="white" stroke="none" points="-4,4 -4,-3740 447.345,-3740 447.345,4 -4,4"/>
<!-- [85] -->
<g id="node1" class="node"><title>[85]</title>
<ellipse fill="none" stroke="black" cx="252" cy="-3618" rx="69.3374" ry="18"/>
<text text-anchor="middle" x="252" y="-3613.8" font-family="Times,serif" font-size="14.00">JUMPDEST[85]</text>
</g>
<!-- [87] -->
<g id="node6" class="node"><title>[87]</title>
<ellipse fill="none" stroke="black" cx="199" cy="-3518" rx="27" ry="18"/>
<text text-anchor="middle" x="199" y="-3513.8" font-family="Times,serif" font-size="14.00">[87]</text>
</g>
<!-- [85]&#45;&gt;[87] -->
<g id="edge2" class="edge"><title>[85]&#45;&gt;[87]</title>
<path fill="none" stroke="red" d="M242.768,-3599.93C234.46,-3584.57 222.142,-3561.79 212.688,-3544.31"/>
<polygon fill="red" stroke="red" points="215.61,-3542.36 207.774,-3535.22 209.453,-3545.68 215.61,-3542.36"/>
<text text-anchor="middle" x="271.672" y="-3570.8" font-family="Times,serif" font-size="14.00">step 2 PUSH1</text>
<text text-anchor="middle" x="271.672" y="-3556.8" font-family="Times,serif" font-size="14.00">stack size +1</text>
</g>
<!-- [114] -->
<g id="node2" class="node"><title>[114]</title>
<ellipse fill="none" stroke="black" cx="128" cy="-1718" rx="73.4841" ry="18"/>
<text text-anchor="middle" x="128" y="-1713.8" font-family="Times,serif" font-size="14.00">JUMPDEST[114]</text>
</g>
<!-- [116] -->
<g id="node24" class="node"><title>[116]</title>
<ellipse fill="none" stroke="black" cx="128" cy="-1618" rx="28.4082" ry="18"/>
<text text-anchor="middle" x="128" y="-1613.8" font-family="Times,serif" font-size="14.00">[116]</text>
</g>
<!-- [114]&#45;&gt;[116] -->
<g id="edge24" class="edge"><title>[114]&#45;&gt;[116]</title>
<path fill="none" stroke="red" d="M128,-1699.93C128,-1685.12 128,-1663.43 128,-1646.23"/>
<polygon fill="red" stroke="red" points="131.5,-1646.2 128,-1636.2 124.5,-1646.2 131.5,-1646.2"/>
<text text-anchor="middle" x="171.172" y="-1670.8" font-family="Times,serif" font-size="14.00">step 24 PUSH1</text>
<text text-anchor="middle" x="171.172" y="-1656.8" font-family="Times,serif" font-size="14.00">stack size +1</text>
</g>
<!-- [123] -->
<g id="node3" class="node"><title>[123]</title>
<ellipse fill="none" stroke="black" cx="181" cy="-1018" rx="73.4703" ry="18"/>
<text text-anchor="middle" x="181" y="-1013.8" font-family="Times,serif" font-size="14.00">JUMPDEST[123]</text>
</g>
<!-- [124] -->
<g id="node4" class="node"><title>[124]</title>
<ellipse fill="none" stroke="black" cx="181" cy="-918" rx="73.4703" ry="18"/>
<text text-anchor="middle" x="181" y="-913.8" font-family="Times,serif" font-size="14.00">JUMPDEST[124]</text>
</g>
<!-- [123]&#45;&gt;[124] -->
<g id="edge31" class="edge"><title>[123]&#45;&gt;[124]</title>
<path fill="none" stroke="brown" d="M181,-999.93C181,-985.125 181,-963.432 181,-946.231"/>
<polygon fill="brown" stroke="brown" points="184.5,-946.203 181,-936.203 177.5,-946.204 184.5,-946.203"/>
<text text-anchor="middle" x="238.172" y="-970.8" font-family="Times,serif" font-size="14.00">step 31 JUMPDEST</text>
<text text-anchor="middle" x="238.172" y="-956.8" font-family="Times,serif" font-size="14.00">stack size +0</text>
</g>
<!-- [125] -->
<g id="node30" class="node"><title>[125]</title>
<ellipse fill="none" stroke="black" cx="181" cy="-818" rx="28.8958" ry="18"/>
<text text-anchor="middle" x="181" y="-813.8" font-family="Times,serif" font-size="14.00">[125]</text>
</g>
<!-- [124]&#45;&gt;[125] -->
<g id="edge32" class="edge"><title>[124]&#45;&gt;[125]</title>
<path fill="none" stroke="red" d="M181,-899.93C181,-885.125 181,-863.432 181,-846.231"/>
<polygon fill="red" stroke="red" points="184.5,-846.203 181,-836.203 177.5,-846.204 184.5,-846.203"/>
<text text-anchor="middle" x="220.279" y="-870.8" font-family="Times,serif" font-size="14.00">step 32 DUP1</text>
<text text-anchor="middle" x="220.279" y="-856.8" font-family="Times,serif" font-size="14.00">stack size +1</text>
</g>
<!-- [136] -->
<g id="node5" class="node"><title>[136]</title>
<ellipse fill="none" stroke="black" cx="73" cy="-18" rx="73.4703" ry="18"/>
<text text-anchor="middle" x="73" y="-13.8" font-family="Times,serif" font-size="14.00">JUMPDEST[136]</text>
</g>
<!-- [88] -->
<g id="node7" class="node"><title>[88]</title>
<ellipse fill="none" stroke="black" cx="196" cy="-3418" rx="27" ry="18"/>
<text text-anchor="middle" x="196" y="-3413.8" font-family="Times,serif" font-size="14.00">[88]</text>
</g>
<!-- [87]&#45;&gt;[88] -->
<g id="edge3" class="edge"><title>[87]&#45;&gt;[88]</title>
<path fill="none" stroke="red" d="M198.477,-3499.93C198.024,-3485.12 197.36,-3463.43 196.834,-3446.23"/>
<polygon fill="red" stroke="red" points="200.331,-3446.09 196.527,-3436.2 193.334,-3446.31 200.331,-3446.09"/>
<text text-anchor="middle" x="234.213" y="-3470.8" font-family="Times,serif" font-size="14.00">step 3 DUP2</text>
<text text-anchor="middle" x="234.213" y="-3456.8" font-family="Times,serif" font-size="14.00">stack size +1</text>
</g>
<!-- [89] -->
<g id="node8" class="node"><title>[89]</title>
<ellipse fill="none" stroke="black" cx="196" cy="-3318" rx="27" ry="18"/>
<text text-anchor="middle" x="196" y="-3313.8" font-family="Times,serif" font-size="14.00">[89]</text>
</g>
<!-- [88]&#45;&gt;[89] -->
<g id="edge4" class="edge"><title>[88]&#45;&gt;[89]</title>
<path fill="none" stroke="green" d="M196,-3399.93C196,-3385.12 196,-3363.43 196,-3346.23"/>
<polygon fill="green" stroke="green" points="199.5,-3346.2 196,-3336.2 192.5,-3346.2 199.5,-3346.2"/>
<text text-anchor="middle" x="230.597" y="-3370.8" font-family="Times,serif" font-size="14.00">step 4 LT</text>
<text text-anchor="middle" x="230.597" y="-3356.8" font-family="Times,serif" font-size="14.00">stack size &#45;1</text>
</g>
<!-- [90] -->
<g id="node9" class="node"><title>[90]</title>
<ellipse fill="none" stroke="black" cx="175" cy="-3218" rx="27" ry="18"/>
<text text-anchor="middle" x="175" y="-3213.8" font-family="Times,serif" font-size="14.00">[90]</text>
</g>
<!-- [89]&#45;&gt;[90] -->
<g id="edge5" class="edge"><title>[89]&#45;&gt;[90]</title>
<path fill="none" stroke="brown" d="M192.342,-3299.93C189.15,-3285.03 184.464,-3263.17 180.768,-3245.92"/>
<polygon fill="brown" stroke="brown" points="184.134,-3244.92 178.616,-3235.87 177.289,-3246.39 184.134,-3244.92"/>
<text text-anchor="middle" x="230.776" y="-3270.8" font-family="Times,serif" font-size="14.00">step 5 ISZERO</text>
<text text-anchor="middle" x="230.776" y="-3256.8" font-family="Times,serif" font-size="14.00">stack size +0</text>
</g>
<!-- [92] -->
<g id="node10" class="node"><title>[92]</title>
<ellipse fill="none" stroke="black" cx="124" cy="-3118" rx="27" ry="18"/>
<text text-anchor="middle" x="124" y="-3113.8" font-family="Times,serif" font-size="14.00">[92]</text>
</g>
<!-- [90]&#45;&gt;[92] -->
<g id="edge6" class="edge"><title>[90]&#45;&gt;[92]</title>
<path fill="none" stroke="red" d="M166.578,-3200.82C158.605,-3185.5 146.51,-3162.25 137.246,-3144.45"/>
<polygon fill="red" stroke="red" points="140.155,-3142.46 132.434,-3135.21 133.946,-3145.69 140.155,-3142.46"/>
<text text-anchor="middle" x="195.672" y="-3170.8" font-family="Times,serif" font-size="14.00">step 6 PUSH1</text>
<text text-anchor="middle" x="195.672" y="-3156.8" font-family="Times,serif" font-size="14.00">stack size +1</text>
</g>
<!-- [92]&#45;&gt;[136] -->
<g id="edge7" class="edge"><title>[92]&#45;&gt;[136]</title>
<path fill="none" stroke="blue" d="M102.251,-3107.18C73.379,-3092.48 26,-3061.83 26,-3019 26,-3019 26,-3019 26,-117 26,-90.2851 40.3751,-63.1454 53.2253,-44.2216"/>
<polygon fill="blue" stroke="blue" points="56.2115,-46.0616 59.1527,-35.8832 50.5061,-42.0059 56.2115,-46.0616"/>
<text text-anchor="middle" x="64.5034" y="-1570.8" font-family="Times,serif" font-size="14.00">step 7 JUMPI</text>
<text text-anchor="middle" x="64.5034" y="-1556.8" font-family="Times,serif" font-size="14.00">stack size &#45;2</text>
</g>
<!-- [95] -->
<g id="node11" class="node"><title>[95]</title>
<ellipse fill="none" stroke="black" cx="124" cy="-3018" rx="27" ry="18"/>
<text text-anchor="middle" x="124" y="-3013.8" font-family="Times,serif" font-size="14.00">[95]</text>
</g>
<!-- [92]&#45;&gt;[95] -->
<g id="edge8" class="edge"><title>[92]&#45;&gt;[95]</title>
<path fill="none" stroke="red" d="M124,-3099.93C124,-3085.12 124,-3063.43 124,-3046.23"/>
<polygon fill="red" stroke="red" points="127.5,-3046.2 124,-3036.2 120.5,-3046.2 127.5,-3046.2"/>
<text text-anchor="middle" x="163.672" y="-3070.8" font-family="Times,serif" font-size="14.00">step 8 PUSH1</text>
<text text-anchor="middle" x="163.672" y="-3056.8" font-family="Times,serif" font-size="14.00">stack size +1</text>
</g>
<!-- [96] -->
<g id="node12" class="node"><title>[96]</title>
<ellipse fill="none" stroke="black" cx="124" cy="-2918" rx="27" ry="18"/>
<text text-anchor="middle" x="124" y="-2913.8" font-family="Times,serif" font-size="14.00">[96]</text>
</g>
<!-- [95]&#45;&gt;[96] -->
<g id="edge9" class="edge"><title>[95]&#45;&gt;[96]</title>
<path fill="none" stroke="red" d="M124,-2999.93C124,-2985.12 124,-2963.43 124,-2946.23"/>
<polygon fill="red" stroke="red" points="127.5,-2946.2 124,-2936.2 120.5,-2946.2 127.5,-2946.2"/>
<text text-anchor="middle" x="160.213" y="-2970.8" font-family="Times,serif" font-size="14.00">step 9 DUP1</text>
<text text-anchor="middle" x="160.213" y="-2956.8" font-family="Times,serif" font-size="14.00">stack size +1</text>
</g>
<!-- [97] -->
<g id="node13" class="node"><title>[97]</title>
<ellipse fill="none" stroke="black" cx="124" cy="-2818" rx="27" ry="18"/>
<text text-anchor="middle" x="124" y="-2813.8" font-family="Times,serif" font-size="14.00">[97]</text>
</g>
<!-- [96]&#45;&gt;[97] -->
<g id="edge10" class="edge"><title>[96]&#45;&gt;[97]</title>
<path fill="none" stroke="orange" d="M124,-2899.93C124,-2885.12 124,-2863.43 124,-2846.23"/>
<polygon fill="orange" stroke="orange" points="127.5,-2846.2 124,-2836.2 120.5,-2846.2 127.5,-2846.2"/>
<text text-anchor="middle" x="169.11" y="-2870.8" font-family="Times,serif" font-size="14.00">step 10 SLOAD</text>
<text text-anchor="middle" x="169.11" y="-2856.8" font-family="Times,serif" font-size="14.00">stack size &#45;2</text>
</g>
<!-- [98] -->
<g id="node14" class="node"><title>[98]</title>
<ellipse fill="none" stroke="black" cx="124" cy="-2718" rx="27" ry="18"/>
<text text-anchor="middle" x="124" y="-2713.8" font-family="Times,serif" font-size="14.00">[98]</text>
</g>
<!-- [97]&#45;&gt;[98] -->
<g id="edge11" class="edge"><title>[97]&#45;&gt;[98]</title>
<path fill="none" stroke="green" d="M124,-2799.93C124,-2785.12 124,-2763.43 124,-2746.23"/>
<polygon fill="green" stroke="green" points="127.5,-2746.2 124,-2736.2 120.5,-2746.2 127.5,-2746.2"/>
<text text-anchor="middle" x="158.597" y="-2770.8" font-family="Times,serif" font-size="14.00">step 11 EQ</text>
<text text-anchor="middle" x="158.597" y="-2756.8" font-family="Times,serif" font-size="14.00">stack size &#45;1</text>
</g>
<!-- [99] -->
<g id="node15" class="node"><title>[99]</title>
<ellipse fill="none" stroke="black" cx="124" cy="-2618" rx="27" ry="18"/>
<text text-anchor="middle" x="124" y="-2613.8" font-family="Times,serif" font-size="14.00">[99]</text>
</g>
<!-- [98]&#45;&gt;[99] -->
<g id="edge12" class="edge"><title>[98]&#45;&gt;[99]</title>
<path fill="none" stroke="brown" d="M124,-2699.93C124,-2685.12 124,-2663.43 124,-2646.23"/>
<polygon fill="brown" stroke="brown" points="127.5,-2646.2 124,-2636.2 120.5,-2646.2 127.5,-2646.2"/>
<text text-anchor="middle" x="170.276" y="-2670.8" font-family="Times,serif" font-size="14.00">step 12 ISZERO</text>
<text text-anchor="middle" x="170.276" y="-2656.8" font-family="Times,serif" font-size="14.00">stack size +0</text>
</g>
<!-- [101] -->
<g id="node16" class="node"><title>[101]</title>
<ellipse fill="none" stroke="black" cx="124" cy="-2518" rx="28.8958" ry="18"/>
<text text-anchor="middle" x="124" y="-2513.8" font-family="Times,serif" font-size="14.00">[101]</text>
</g>
<!-- [99]&#45;&gt;[101] -->
<g id="edge13" class="edge"><title>[99]&#45;&gt;[101]</title>
<path fill="none" stroke="red" d="M124,-2599.93C124,-2585.12 124,-2563.43 124,-2546.23"/>
<polygon fill="red" stroke="red" points="127.5,-2546.2 124,-2536.2 120.5,-2546.2 127.5,-2546.2"/>
<text text-anchor="middle" x="167.172" y="-2570.8" font-family="Times,serif" font-size="14.00">step 13 PUSH1</text>
<text text-anchor="middle" x="167.172" y="-2556.8" font-family="Times,serif" font-size="14.00">stack size +1</text>
</g>
<!-- [101]&#45;&gt;[114] -->
<g id="edge14" class="edge"><title>[101]&#45;&gt;[114]</title>
<path fill="none" stroke="blue" d="M115.922,-2500.45C107.341,-2481.31 95,-2448.63 95,-2419 95,-2419 95,-2419 95,-1817 95,-1791.66 105.033,-1764.47 114.034,-1745.17"/>
<polygon fill="blue" stroke="blue" points="117.214,-1746.64 118.455,-1736.12 110.923,-1743.57 117.214,-1746.64"/>
<text text-anchor="middle" x="137.003" y="-2120.8" font-family="Times,serif" font-size="14.00">step 14 JUMPI</text>
<text text-anchor="middle" x="137.003" y="-2106.8" font-family="Times,serif" font-size="14.00">stack size &#45;2</text>
</g>
<!-- [104] -->
<g id="node17" class="node"><title>[104]</title>
<ellipse fill="none" stroke="black" cx="189" cy="-2418" rx="28.8958" ry="18"/>
<text text-anchor="middle" x="189" y="-2413.8" font-family="Times,serif" font-size="14.00">[104]</text>
</g>
<!-- [101]&#45;&gt;[104] -->
<g id="edge15" class="edge"><title>[101]&#45;&gt;[104]</title>
<path fill="none" stroke="red" d="M134.733,-2500.82C145.051,-2485.26 160.784,-2461.54 172.658,-2443.64"/>
<polygon fill="red" stroke="red" points="175.856,-2445.15 178.466,-2434.88 170.022,-2441.28 175.856,-2445.15"/>
<text text-anchor="middle" x="208.172" y="-2470.8" font-family="Times,serif" font-size="14.00">step 15 PUSH1</text>
<text text-anchor="middle" x="208.172" y="-2456.8" font-family="Times,serif" font-size="14.00">stack size +1</text>
</g>
<!-- [106] -->
<g id="node18" class="node"><title>[106]</title>
<ellipse fill="none" stroke="black" cx="209" cy="-2318" rx="28.8958" ry="18"/>
<text text-anchor="middle" x="209" y="-2313.8" font-family="Times,serif" font-size="14.00">[106]</text>
</g>
<!-- [104]&#45;&gt;[106] -->
<g id="edge16" class="edge"><title>[104]&#45;&gt;[106]</title>
<path fill="none" stroke="red" d="M192.484,-2399.93C195.524,-2385.03 199.987,-2363.17 203.507,-2345.92"/>
<polygon fill="red" stroke="red" points="206.986,-2346.37 205.556,-2335.87 200.127,-2344.97 206.986,-2346.37"/>
<text text-anchor="middle" x="245.172" y="-2370.8" font-family="Times,serif" font-size="14.00">step 16 PUSH1</text>
<text text-anchor="middle" x="245.172" y="-2356.8" font-family="Times,serif" font-size="14.00">stack size +1</text>
</g>
<!-- [107] -->
<g id="node19" class="node"><title>[107]</title>
<ellipse fill="none" stroke="black" cx="219" cy="-2218" rx="28.8958" ry="18"/>
<text text-anchor="middle" x="219" y="-2213.8" font-family="Times,serif" font-size="14.00">[107]</text>
</g>
<!-- [106]&#45;&gt;[107] -->
<g id="edge17" class="edge"><title>[106]&#45;&gt;[107]</title>
<path fill="none" stroke="red" d="M210.742,-2299.93C212.253,-2285.12 214.466,-2263.43 216.221,-2246.23"/>
<polygon fill="red" stroke="red" points="219.711,-2246.51 217.245,-2236.2 212.747,-2245.8 219.711,-2246.51"/>
<text text-anchor="middle" x="255.279" y="-2270.8" font-family="Times,serif" font-size="14.00">step 17 DUP2</text>
<text text-anchor="middle" x="255.279" y="-2256.8" font-family="Times,serif" font-size="14.00">stack size +1</text>
</g>
<!-- [108] -->
<g id="node20" class="node"><title>[108]</title>
<ellipse fill="none" stroke="black" cx="226" cy="-2118" rx="28.8958" ry="18"/>
<text text-anchor="middle" x="226" y="-2113.8" font-family="Times,serif" font-size="14.00">[108]</text>
</g>
<!-- [107]&#45;&gt;[108] -->
<g id="edge18" class="edge"><title>[107]&#45;&gt;[108]</title>
<path fill="none" stroke="brown" d="M220.219,-2199.93C221.277,-2185.12 222.826,-2163.43 224.055,-2146.23"/>
<polygon fill="brown" stroke="brown" points="227.55,-2146.43 224.771,-2136.2 220.568,-2145.93 227.55,-2146.43"/>
<text text-anchor="middle" x="267.948" y="-2170.8" font-family="Times,serif" font-size="14.00">step 18 SWAP1</text>
<text text-anchor="middle" x="267.948" y="-2156.8" font-family="Times,serif" font-size="14.00">stack size +0</text>
</g>
<!-- [109] -->
<g id="node21" class="node"><title>[109]</title>
<ellipse fill="none" stroke="black" cx="226" cy="-2018" rx="28.8958" ry="18"/>
<text text-anchor="middle" x="226" y="-2013.8" font-family="Times,serif" font-size="14.00">[109]</text>
</g>
<!-- [108]&#45;&gt;[109] -->
<g id="edge19" class="edge"><title>[108]&#45;&gt;[109]</title>
<path fill="none" stroke="orange" d="M226,-2099.93C226,-2085.12 226,-2063.43 226,-2046.23"/>
<polygon fill="orange" stroke="orange" points="229.5,-2046.2 226,-2036.2 222.5,-2046.2 229.5,-2046.2"/>
<text text-anchor="middle" x="273.715" y="-2070.8" font-family="Times,serif" font-size="14.00">step 19 SSTORE</text>
<text text-anchor="middle" x="273.715" y="-2056.8" font-family="Times,serif" font-size="14.00">stack size &#45;2</text>
</g>
<!-- [110] -->
<g id="node22" class="node"><title>[110]</title>
<ellipse fill="none" stroke="black" cx="226" cy="-1918" rx="28.4082" ry="18"/>
<text text-anchor="middle" x="226" y="-1913.8" font-family="Times,serif" font-size="14.00">[110]</text>
</g>
<!-- [109]&#45;&gt;[110] -->
<g id="edge20" class="edge"><title>[109]&#45;&gt;[110]</title>
<path fill="none" stroke="green" d="M226,-1999.93C226,-1985.12 226,-1963.43 226,-1946.23"/>
<polygon fill="green" stroke="green" points="229.5,-1946.2 226,-1936.2 222.5,-1946.2 229.5,-1946.2"/>
<text text-anchor="middle" x="260.617" y="-1970.8" font-family="Times,serif" font-size="14.00">step 20 POP</text>
<text text-anchor="middle" x="260.617" y="-1956.8" font-family="Times,serif" font-size="14.00">stack size &#45;1</text>
</g>
<!-- [112] -->
<g id="node23" class="node"><title>[112]</title>
<ellipse fill="none" stroke="black" cx="226" cy="-1818" rx="28.4082" ry="18"/>
<text text-anchor="middle" x="226" y="-1813.8" font-family="Times,serif" font-size="14.00">[112]</text>
</g>
<!-- [110]&#45;&gt;[112] -->
<g id="edge21" class="edge"><title>[110]&#45;&gt;[112]</title>
<path fill="none" stroke="red" d="M226,-1899.93C226,-1885.12 226,-1863.43 226,-1846.23"/>
<polygon fill="red" stroke="red" points="229.5,-1846.2 226,-1836.2 222.5,-1846.2 229.5,-1846.2"/>
<text text-anchor="middle" x="269.172" y="-1870.8" font-family="Times,serif" font-size="14.00">step 21 PUSH1</text>
<text text-anchor="middle" x="269.172" y="-1856.8" font-family="Times,serif" font-size="14.00">stack size +1</text>
</g>
<!-- [112]&#45;&gt;[114] -->
<g id="edge23" class="edge"><title>[112]&#45;&gt;[114]</title>
<path fill="none" stroke="brown" d="M197.781,-1815.26C175.002,-1812.2 144.264,-1803.96 128.655,-1782 121.4,-1771.8 120.503,-1758.12 121.727,-1746.12"/>
<polygon fill="brown" stroke="brown" points="125.203,-1746.54 123.243,-1736.13 118.282,-1745.49 125.203,-1746.54"/>
<text text-anchor="middle" x="186.172" y="-1770.8" font-family="Times,serif" font-size="14.00">step 23 JUMPDEST</text>
<text text-anchor="middle" x="186.172" y="-1756.8" font-family="Times,serif" font-size="14.00">stack size +0</text>
</g>
<!-- [112]&#45;&gt;[123] -->
<g id="edge22" class="edge"><title>[112]&#45;&gt;[123]</title>
<path fill="none" stroke="blue" d="M234.943,-1800.6C237.819,-1794.85 240.821,-1788.25 243,-1782 252.441,-1754.92 257,-1747.68 257,-1719 257,-1719 257,-1719 257,-1117 257,-1088.32 260.078,-1077.04 243,-1054 238.649,-1048.13 233,-1043.1 226.886,-1038.84"/>
<polygon fill="blue" stroke="blue" points="228.673,-1035.83 218.337,-1033.51 224.965,-1041.77 228.673,-1035.83"/>
<text text-anchor="middle" x="296.672" y="-1420.8" font-family="Times,serif" font-size="14.00">step 22 JUMP</text>
<text text-anchor="middle" x="296.672" y="-1406.8" font-family="Times,serif" font-size="14.00">stack size &#45;1</text>
</g>
<!-- [118] -->
<g id="node25" class="node"><title>[118]</title>
<ellipse fill="none" stroke="black" cx="128" cy="-1518" rx="28.4082" ry="18"/>
<text text-anchor="middle" x="128" y="-1513.8" font-family="Times,serif" font-size="14.00">[118]</text>
</g>
<!-- [116]&#45;&gt;[118] -->
<g id="edge25" class="edge"><title>[116]&#45;&gt;[118]</title>
<path fill="none" stroke="red" d="M128,-1599.93C128,-1585.12 128,-1563.43 128,-1546.23"/>
<polygon fill="red" stroke="red" points="131.5,-1546.2 128,-1536.2 124.5,-1546.2 131.5,-1546.2"/>
<text text-anchor="middle" x="171.172" y="-1570.8" font-family="Times,serif" font-size="14.00">step 25 PUSH1</text>
<text text-anchor="middle" x="171.172" y="-1556.8" font-family="Times,serif" font-size="14.00">stack size +1</text>
</g>
<!-- [119] -->
<g id="node26" class="node"><title>[119]</title>
<ellipse fill="none" stroke="black" cx="128" cy="-1418" rx="28.4082" ry="18"/>
<text text-anchor="middle" x="128" y="-1413.8" font-family="Times,serif" font-size="14.00">[119]</text>
</g>
<!-- [118]&#45;&gt;[119] -->
<g id="edge26" class="edge"><title>[118]&#45;&gt;[119]</title>
<path fill="none" stroke="red" d="M128,-1499.93C128,-1485.12 128,-1463.43 128,-1446.23"/>
<polygon fill="red" stroke="red" points="131.5,-1446.2 128,-1436.2 124.5,-1446.2 131.5,-1446.2"/>
<text text-anchor="middle" x="167.279" y="-1470.8" font-family="Times,serif" font-size="14.00">step 26 DUP2</text>
<text text-anchor="middle" x="167.279" y="-1456.8" font-family="Times,serif" font-size="14.00">stack size +1</text>
</g>
<!-- [120] -->
<g id="node27" class="node"><title>[120]</title>
<ellipse fill="none" stroke="black" cx="128" cy="-1318" rx="28.8958" ry="18"/>
<text text-anchor="middle" x="128" y="-1313.8" font-family="Times,serif" font-size="14.00">[120]</text>
</g>
<!-- [119]&#45;&gt;[120] -->
<g id="edge27" class="edge"><title>[119]&#45;&gt;[120]</title>
<path fill="none" stroke="brown" d="M128,-1399.93C128,-1385.12 128,-1363.43 128,-1346.23"/>
<polygon fill="brown" stroke="brown" points="131.5,-1346.2 128,-1336.2 124.5,-1346.2 131.5,-1346.2"/>
<text text-anchor="middle" x="171.948" y="-1370.8" font-family="Times,serif" font-size="14.00">step 27 SWAP1</text>
<text text-anchor="middle" x="171.948" y="-1356.8" font-family="Times,serif" font-size="14.00">stack size +0</text>
</g>
<!-- [121] -->
<g id="node28" class="node"><title>[121]</title>
<ellipse fill="none" stroke="black" cx="128" cy="-1218" rx="28.8958" ry="18"/>
<text text-anchor="middle" x="128" y="-1213.8" font-family="Times,serif" font-size="14.00">[121]</text>
</g>
<!-- [120]&#45;&gt;[121] -->
<g id="edge28" class="edge"><title>[120]&#45;&gt;[121]</title>
<path fill="none" stroke="orange" d="M128,-1299.93C128,-1285.12 128,-1263.43 128,-1246.23"/>
<polygon fill="orange" stroke="orange" points="131.5,-1246.2 128,-1236.2 124.5,-1246.2 131.5,-1246.2"/>
<text text-anchor="middle" x="175.715" y="-1270.8" font-family="Times,serif" font-size="14.00">step 28 SSTORE</text>
<text text-anchor="middle" x="175.715" y="-1256.8" font-family="Times,serif" font-size="14.00">stack size &#45;2</text>
</g>
<!-- [122] -->
<g id="node29" class="node"><title>[122]</title>
<ellipse fill="none" stroke="black" cx="128" cy="-1118" rx="28.8958" ry="18"/>
<text text-anchor="middle" x="128" y="-1113.8" font-family="Times,serif" font-size="14.00">[122]</text>
</g>
<!-- [121]&#45;&gt;[122] -->
<g id="edge29" class="edge"><title>[121]&#45;&gt;[122]</title>
<path fill="none" stroke="green" d="M128,-1199.93C128,-1185.12 128,-1163.43 128,-1146.23"/>
<polygon fill="green" stroke="green" points="131.5,-1146.2 128,-1136.2 124.5,-1146.2 131.5,-1146.2"/>
<text text-anchor="middle" x="162.617" y="-1170.8" font-family="Times,serif" font-size="14.00">step 29 POP</text>
<text text-anchor="middle" x="162.617" y="-1156.8" font-family="Times,serif" font-size="14.00">stack size &#45;1</text>
</g>
<!-- [122]&#45;&gt;[123] -->
<g id="edge30" class="edge"><title>[122]&#45;&gt;[123]</title>
<path fill="none" stroke="brown" d="M124.094,-1100.15C121.924,-1086.82 121.004,-1068.14 128.655,-1054 131.386,-1048.95 135.199,-1044.5 139.534,-1040.62"/>
<polygon fill="brown" stroke="brown" points="142.019,-1043.12 147.781,-1034.23 137.732,-1037.59 142.019,-1043.12"/>
<text text-anchor="middle" x="186.172" y="-1070.8" font-family="Times,serif" font-size="14.00">step 30 JUMPDEST</text>
<text text-anchor="middle" x="186.172" y="-1056.8" font-family="Times,serif" font-size="14.00">stack size +0</text>
</g>
<!-- [126] -->
<g id="node31" class="node"><title>[126]</title>
<ellipse fill="none" stroke="black" cx="181" cy="-718" rx="28.8958" ry="18"/>
<text text-anchor="middle" x="181" y="-713.8" font-family="Times,serif" font-size="14.00">[126]</text>
</g>
<!-- [125]&#45;&gt;[126] -->
<g id="edge33" class="edge"><title>[125]&#45;&gt;[126]</title>
<path fill="none" stroke="red" d="M181,-799.93C181,-785.125 181,-763.432 181,-746.231"/>
<polygon fill="red" stroke="red" points="184.5,-746.203 181,-736.203 177.5,-746.204 184.5,-746.203"/>
<text text-anchor="middle" x="220.279" y="-770.8" font-family="Times,serif" font-size="14.00">step 33 DUP1</text>
<text text-anchor="middle" x="220.279" y="-756.8" font-family="Times,serif" font-size="14.00">stack size +1</text>
</g>
<!-- [128] -->
<g id="node32" class="node"><title>[128]</title>
<ellipse fill="none" stroke="black" cx="181" cy="-618" rx="28.8958" ry="18"/>
<text text-anchor="middle" x="181" y="-613.8" font-family="Times,serif" font-size="14.00">[128]</text>
</g>
<!-- [126]&#45;&gt;[128] -->
<g id="edge34" class="edge"><title>[126]&#45;&gt;[128]</title>
<path fill="none" stroke="red" d="M181,-699.93C181,-685.125 181,-663.432 181,-646.231"/>
<polygon fill="red" stroke="red" points="184.5,-646.203 181,-636.203 177.5,-646.204 184.5,-646.203"/>
<text text-anchor="middle" x="224.172" y="-670.8" font-family="Times,serif" font-size="14.00">step 34 PUSH1</text>
<text text-anchor="middle" x="224.172" y="-656.8" font-family="Times,serif" font-size="14.00">stack size +1</text>
</g>
<!-- [129] -->
<g id="node33" class="node"><title>[129]</title>
<ellipse fill="none" stroke="black" cx="181" cy="-518" rx="28.8958" ry="18"/>
<text text-anchor="middle" x="181" y="-513.8" font-family="Times,serif" font-size="14.00">[129]</text>
</g>
<!-- [128]&#45;&gt;[129] -->
<g id="edge35" class="edge"><title>[128]&#45;&gt;[129]</title>
<path fill="none" stroke="green" d="M181,-599.93C181,-585.125 181,-563.432 181,-546.231"/>
<polygon fill="green" stroke="green" points="184.5,-546.203 181,-536.203 177.5,-546.204 184.5,-546.203"/>
<text text-anchor="middle" x="217.559" y="-570.8" font-family="Times,serif" font-size="14.00">step 35 ADD</text>
<text text-anchor="middle" x="217.559" y="-556.8" font-family="Times,serif" font-size="14.00">stack size &#45;1</text>
</g>
<!-- [130] -->
<g id="node34" class="node"><title>[130]</title>
<ellipse fill="none" stroke="black" cx="181" cy="-418" rx="28.8958" ry="18"/>
<text text-anchor="middle" x="181" y="-413.8" font-family="Times,serif" font-size="14.00">[130]</text>
</g>
<!-- [129]&#45;&gt;[130] -->
<g id="edge36" class="edge"><title>[129]&#45;&gt;[130]</title>
<path fill="none" stroke="brown" d="M181,-499.93C181,-485.125 181,-463.432 181,-446.231"/>
<polygon fill="brown" stroke="brown" points="184.5,-446.203 181,-436.203 177.5,-446.204 184.5,-446.203"/>
<text text-anchor="middle" x="224.948" y="-470.8" font-family="Times,serif" font-size="14.00">step 36 SWAP2</text>
<text text-anchor="middle" x="224.948" y="-456.8" font-family="Times,serif" font-size="14.00">stack size +0</text>
</g>
<!-- [131] -->
<g id="node35" class="node"><title>[131]</title>
<ellipse fill="none" stroke="black" cx="181" cy="-318" rx="28.8958" ry="18"/>
<text text-anchor="middle" x="181" y="-313.8" font-family="Times,serif" font-size="14.00">[131]</text>
</g>
<!-- [130]&#45;&gt;[131] -->
<g id="edge37" class="edge"><title>[130]&#45;&gt;[131]</title>
<path fill="none" stroke="green" d="M181,-399.93C181,-385.125 181,-363.432 181,-346.231"/>
<polygon fill="green" stroke="green" points="184.5,-346.203 181,-336.203 177.5,-346.204 184.5,-346.203"/>
<text text-anchor="middle" x="215.617" y="-370.8" font-family="Times,serif" font-size="14.00">step 37 POP</text>
<text text-anchor="middle" x="215.617" y="-356.8" font-family="Times,serif" font-size="14.00">stack size &#45;1</text>
</g>
<!-- [132] -->
<g id="node36" class="node"><title>[132]</title>
<ellipse fill="none" stroke="black" cx="181" cy="-218" rx="28.8958" ry="18"/>
<text text-anchor="middle" x="181" y="-213.8" font-family="Times,serif" font-size="14.00">[132]</text>
</g>
<!-- [131]&#45;&gt;[132] -->
<g id="edge38" class="edge"><title>[131]&#45;&gt;[132]</title>
<path fill="none" stroke="green" d="M181,-299.93C181,-285.125 181,-263.432 181,-246.231"/>
<polygon fill="green" stroke="green" points="184.5,-246.203 181,-236.203 177.5,-246.204 184.5,-246.203"/>
<text text-anchor="middle" x="215.617" y="-270.8" font-family="Times,serif" font-size="14.00">step 38 POP</text>
<text text-anchor="middle" x="215.617" y="-256.8" font-family="Times,serif" font-size="14.00">stack size &#45;1</text>
</g>
<!-- [134] -->
<g id="node37" class="node"><title>[134]</title>
<ellipse fill="none" stroke="black" cx="181" cy="-118" rx="28.8958" ry="18"/>
<text text-anchor="middle" x="181" y="-113.8" font-family="Times,serif" font-size="14.00">[134]</text>
</g>
<!-- [132]&#45;&gt;[134] -->
<g id="edge39" class="edge"><title>[132]&#45;&gt;[134]</title>
<path fill="none" stroke="red" d="M181,-199.93C181,-185.125 181,-163.432 181,-146.231"/>
<polygon fill="red" stroke="red" points="184.5,-146.203 181,-136.203 177.5,-146.204 184.5,-146.203"/>
<text text-anchor="middle" x="224.172" y="-170.8" font-family="Times,serif" font-size="14.00">step 39 PUSH1</text>
<text text-anchor="middle" x="224.172" y="-156.8" font-family="Times,serif" font-size="14.00">stack size +1</text>
</g>
<!-- [134]&#45;&gt;[85] -->
<g id="edge40" class="edge"><title>[134]&#45;&gt;[85]</title>
<path fill="none" stroke="blue" d="M209.997,-121.385C261.598,-127.384 364,-147.984 364,-217 364,-3519 364,-3519 364,-3519 364,-3556.04 328.882,-3582.32 297.975,-3598.29"/>
<polygon fill="blue" stroke="blue" points="296.41,-3595.16 288.983,-3602.71 299.501,-3601.44 296.41,-3595.16"/>
<text text-anchor="middle" x="403.672" y="-1870.8" font-family="Times,serif" font-size="14.00">step 40 JUMP</text>
<text text-anchor="middle" x="403.672" y="-1856.8" font-family="Times,serif" font-size="14.00">stack size &#45;1</text>
</g>
<!-- [134]&#45;&gt;[136] -->
<g id="edge41" class="edge"><title>[134]&#45;&gt;[136]</title>
<path fill="none" stroke="brown" d="M165.064,-102.54C147.583,-86.6767 119.272,-60.9873 98.6545,-42.2791"/>
<polygon fill="brown" stroke="brown" points="100.926,-39.6138 91.1681,-35.4859 96.2218,-44.7978 100.926,-39.6138"/>
<text text-anchor="middle" x="197.172" y="-70.8" font-family="Times,serif" font-size="14.00">step 41 JUMPDEST</text>
<text text-anchor="middle" x="197.172" y="-56.8" font-family="Times,serif" font-size="14.00">stack size +0</text>
</g>
<!-- 0 -->
<g id="node38" class="node"><title>0</title>
<ellipse fill="none" stroke="black" cx="252" cy="-3718" rx="27" ry="18"/>
<text text-anchor="middle" x="252" y="-3713.8" font-family="Times,serif" font-size="14.00">0</text>
</g>
<!-- 0&#45;&gt;[85] -->
<g id="edge1" class="edge"><title>0&#45;&gt;[85]</title>
<path fill="none" stroke="brown" d="M252,-3699.93C252,-3685.12 252,-3663.43 252,-3646.23"/>
<polygon fill="brown" stroke="brown" points="255.5,-3646.2 252,-3636.2 248.5,-3646.2 255.5,-3646.2"/>
<text text-anchor="middle" x="305.672" y="-3670.8" font-family="Times,serif" font-size="14.00">step 1 JUMPDEST</text>
<text text-anchor="middle" x="305.672" y="-3656.8" font-family="Times,serif" font-size="14.00">stack size +0</text>
</g>
</g>
</svg>
