<?xml version="1.0" encoding="UTF-8" standalone="no"?>
<!DOCTYPE svg PUBLIC "-//W3C//DTD SVG 1.1//EN"
 "http://www.w3.org/Graphics/SVG/1.1/DTD/svg11.dtd">
<!-- Generated by graphviz version 2.36.0 (20140111.2315)
 -->
<!-- Title: %3 Pages: 1 -->
<svg width="379pt" height="2904pt"
 viewBox="0.00 0.00 378.77 2904.00" xmlns="http://www.w3.org/2000/svg" xmlns:xlink="http://www.w3.org/1999/xlink">
<g id="graph0" class="graph" transform="scale(1 1) rotate(0) translate(4 2900)">
<title>%3</title>
<polygon fill="white" stroke="none" points="-4,4 -4,-2900 374.767,-2900 374.767,4 -4,4"/>
<!-- [85] -->
<g id="&#45;1" class="node"><title>[85]</title>
<ellipse fill="none" stroke="black" cx="255" cy="-2792" rx="27" ry="18"/>
<text text-anchor="middle" x="255" y="-2787.8" font-family="Times,serif" font-size="14.00">0</text>
</g>
<!-- [87] -->
<g id="&#45;1" class="node"><title>[87]</title>
<ellipse fill="none" stroke="black" cx="203" cy="-2706" rx="27" ry="18"/>
<text text-anchor="middle" x="203" y="-2701.8" font-family="Times,serif" font-size="14.00">1</text>
</g>
<!-- [85]&#45;&gt;[87] -->
<g id="+1" class="edge"><title>[85]&#45;&gt;[87]</title>
<path fill="none" stroke="red" d="M235.047,-2779.81C226.289,-2773.87 216.715,-2765.77 210.987,-2756 207.195,-2749.53 205.057,-2741.8 203.888,-2734.41"/>
<polygon fill="red" stroke="red" points="207.357,-2733.93 202.809,-2724.36 200.397,-2734.68 207.357,-2733.93"/>
<text text-anchor="middle" x="255.006" y="-2744.8" font-family="Times,serif" font-size="14.00">[87] PUSH1 +1</text>
</g>
<!-- [114] -->
<g id="&#45;1" class="node"><title>[114]</title>
<ellipse fill="none" stroke="black" cx="75" cy="-1588" rx="75.5671" ry="18"/>
<text text-anchor="middle" x="75" y="-1583.8" font-family="Times,serif" font-size="14.00">JUMPDEST [114]</text>
</g>
<!-- [116] -->
<g id="&#45;1" class="node"><title>[116]</title>
<ellipse fill="none" stroke="black" cx="74" cy="-1502" rx="27" ry="18"/>
<text text-anchor="middle" x="74" y="-1497.8" font-family="Times,serif" font-size="14.00">1</text>
</g>
<!-- [114]&#45;&gt;[116] -->
<g id="+1" class="edge"><title>[114]&#45;&gt;[116]</title>
<path fill="none" stroke="red" d="M74.7928,-1569.6C74.6578,-1558.26 74.4789,-1543.23 74.3252,-1530.32"/>
<polygon fill="red" stroke="red" points="77.8224,-1530.05 74.2035,-1520.1 70.8229,-1530.14 77.8224,-1530.05"/>
<text text-anchor="middle" x="122.25" y="-1540.8" font-family="Times,serif" font-size="14.00">[116] PUSH1 +1</text>
</g>
<!-- [123] -->
<g id="&#45;1" class="node"><title>[123]</title>
<ellipse fill="none" stroke="black" cx="175" cy="-878" rx="27" ry="18"/>
<text text-anchor="middle" x="175" y="-873.8" font-family="Times,serif" font-size="14.00">0</text>
</g>
<!-- [124] -->
<g id="&#45;1" class="node"><title>[124]</title>
<ellipse fill="none" stroke="black" cx="188" cy="-792" rx="27" ry="18"/>
<text text-anchor="middle" x="188" y="-787.8" font-family="Times,serif" font-size="14.00">0</text>
</g>
<!-- [123]&#45;&gt;[124] -->
<g id="+0" class="edge"><title>[123]&#45;&gt;[124]</title>
<path fill="none" stroke="brown" d="M174.182,-859.64C174.052,-850.212 174.399,-838.391 176.233,-828 176.745,-825.1 177.452,-822.114 178.268,-819.166"/>
<polygon fill="brown" stroke="brown" points="181.656,-820.06 181.334,-809.47 174.982,-817.949 181.656,-820.06"/>
<text text-anchor="middle" x="238.383" y="-830.8" font-family="Times,serif" font-size="14.00">[124] JUMPDEST +0</text>
</g>
<!-- [125] -->
<g id="&#45;1" class="node"><title>[125]</title>
<ellipse fill="none" stroke="black" cx="197" cy="-706" rx="27" ry="18"/>
<text text-anchor="middle" x="197" y="-701.8" font-family="Times,serif" font-size="14.00">1</text>
</g>
<!-- [124]&#45;&gt;[125] -->
<g id="+1" class="edge"><title>[124]&#45;&gt;[125]</title>
<path fill="none" stroke="red" d="M189.821,-774.001C191.041,-762.616 192.674,-747.376 194.074,-734.308"/>
<polygon fill="red" stroke="red" points="197.596,-734.289 195.181,-723.973 190.636,-733.544 197.596,-734.289"/>
<text text-anchor="middle" x="237.613" y="-744.8" font-family="Times,serif" font-size="14.00">[125] DUP1 +1</text>
</g>
<!-- [136] -->
<g id="&#45;1" class="node"><title>[136]</title>
<ellipse fill="none" stroke="black" cx="76" cy="-2190" rx="76.0533" ry="18"/>
<text text-anchor="middle" x="76" y="-2185.8" font-family="Times,serif" font-size="14.00">JUMPDEST [136]</text>
</g>
<!-- [88] -->
<g id="&#45;1" class="node"><title>[88]</title>
<ellipse fill="none" stroke="black" cx="198" cy="-2620" rx="27" ry="18"/>
<text text-anchor="middle" x="198" y="-2615.8" font-family="Times,serif" font-size="14.00">2</text>
</g>
<!-- [87]&#45;&gt;[88] -->
<g id="+1" class="edge"><title>[87]&#45;&gt;[88]</title>
<path fill="none" stroke="red" d="M201.988,-2688C201.315,-2676.69 200.415,-2661.58 199.641,-2648.57"/>
<polygon fill="red" stroke="red" points="203.116,-2648.04 199.027,-2638.26 196.128,-2648.45 203.116,-2648.04"/>
<text text-anchor="middle" x="241.113" y="-2658.8" font-family="Times,serif" font-size="14.00">[88] DUP2 +1</text>
</g>
<!-- [89] -->
<g id="&#45;1" class="node"><title>[89]</title>
<ellipse fill="none" stroke="black" cx="197" cy="-2534" rx="27" ry="18"/>
<text text-anchor="middle" x="197" y="-2529.8" font-family="Times,serif" font-size="14.00">1</text>
</g>
<!-- [88]&#45;&gt;[89] -->
<g id="&#45;1" class="edge"><title>[88]&#45;&gt;[89]</title>
<path fill="none" stroke="green" d="M197.793,-2601.6C197.658,-2590.26 197.479,-2575.23 197.325,-2562.32"/>
<polygon fill="green" stroke="green" points="200.822,-2562.05 197.204,-2552.1 193.823,-2562.14 200.822,-2562.05"/>
<text text-anchor="middle" x="226.779" y="-2572.8" font-family="Times,serif" font-size="14.00">[89] LT &#45;1</text>
</g>
<!-- [90] -->
<g id="&#45;1" class="node"><title>[90]</title>
<ellipse fill="none" stroke="black" cx="197" cy="-2448" rx="27" ry="18"/>
<text text-anchor="middle" x="197" y="-2443.8" font-family="Times,serif" font-size="14.00">1</text>
</g>
<!-- [89]&#45;&gt;[90] -->
<g id="+0" class="edge"><title>[89]&#45;&gt;[90]</title>
<path fill="none" stroke="brown" d="M197,-2515.6C197,-2504.26 197,-2489.23 197,-2476.32"/>
<polygon fill="brown" stroke="brown" points="200.5,-2476.1 197,-2466.1 193.5,-2476.1 200.5,-2476.1"/>
<text text-anchor="middle" x="244.11" y="-2486.8" font-family="Times,serif" font-size="14.00">[90] ISZERO +0</text>
</g>
<!-- [92] -->
<g id="&#45;1" class="node"><title>[92]</title>
<ellipse fill="none" stroke="black" cx="197" cy="-2362" rx="27" ry="18"/>
<text text-anchor="middle" x="197" y="-2357.8" font-family="Times,serif" font-size="14.00">2</text>
</g>
<!-- [90]&#45;&gt;[92] -->
<g id="+1" class="edge"><title>[90]&#45;&gt;[92]</title>
<path fill="none" stroke="red" d="M197,-2429.6C197,-2418.26 197,-2403.23 197,-2390.32"/>
<polygon fill="red" stroke="red" points="200.5,-2390.1 197,-2380.1 193.5,-2390.1 200.5,-2390.1"/>
<text text-anchor="middle" x="241.006" y="-2400.8" font-family="Times,serif" font-size="14.00">[92] PUSH1 +1</text>
</g>
<!-- [93] -->
<g id="&#45;1" class="node"><title>[93]</title>
<ellipse fill="none" stroke="black" cx="197" cy="-2276" rx="27" ry="18"/>
<text text-anchor="middle" x="197" y="-2271.8" font-family="Times,serif" font-size="14.00">0</text>
</g>
<!-- [92]&#45;&gt;[93] -->
<g id="&#45;2" class="edge"><title>[92]&#45;&gt;[93]</title>
<path fill="none" stroke="blue" d="M197,-2343.6C197,-2332.26 197,-2317.23 197,-2304.32"/>
<polygon fill="blue" stroke="blue" points="200.5,-2304.1 197,-2294.1 193.5,-2304.1 200.5,-2304.1"/>
<text text-anchor="middle" x="238.221" y="-2314.8" font-family="Times,serif" font-size="14.00">[93] JUMPI &#45;2</text>
</g>
<!-- [93]&#45;&gt;[136] -->
<g id="0" class="edge"><title>[93]&#45;&gt;[136]</title>
<path fill="none" stroke="blue" d="M178.885,-2262.42C160.178,-2249.44 130.606,-2228.91 107.957,-2213.19"/>
<polygon fill="blue" stroke="blue" points="109.864,-2210.25 99.6533,-2207.42 105.872,-2216 109.864,-2210.25"/>
<text text-anchor="middle" x="147.5" y="-2228.8" font-family="Times,serif" font-size="14.00">0</text>
</g>
<!-- [95] -->
<g id="&#45;1" class="node"><title>[95]</title>
<ellipse fill="none" stroke="black" cx="197" cy="-2190" rx="27" ry="18"/>
<text text-anchor="middle" x="197" y="-2185.8" font-family="Times,serif" font-size="14.00">1</text>
</g>
<!-- [93]&#45;&gt;[95] -->
<g id="+1" class="edge"><title>[93]&#45;&gt;[95]</title>
<path fill="none" stroke="red" d="M197,-2257.6C197,-2246.26 197,-2231.23 197,-2218.32"/>
<polygon fill="red" stroke="red" points="200.5,-2218.1 197,-2208.1 193.5,-2218.1 200.5,-2218.1"/>
<text text-anchor="middle" x="241.006" y="-2228.8" font-family="Times,serif" font-size="14.00">[95] PUSH1 +1</text>
</g>
<!-- [96] -->
<g id="&#45;1" class="node"><title>[96]</title>
<ellipse fill="none" stroke="black" cx="197" cy="-2104" rx="27" ry="18"/>
<text text-anchor="middle" x="197" y="-2099.8" font-family="Times,serif" font-size="14.00">2</text>
</g>
<!-- [95]&#45;&gt;[96] -->
<g id="+1" class="edge"><title>[95]&#45;&gt;[96]</title>
<path fill="none" stroke="red" d="M197,-2171.6C197,-2160.26 197,-2145.23 197,-2132.32"/>
<polygon fill="red" stroke="red" points="200.5,-2132.1 197,-2122.1 193.5,-2132.1 200.5,-2132.1"/>
<text text-anchor="middle" x="237.113" y="-2142.8" font-family="Times,serif" font-size="14.00">[96] DUP1 +1</text>
</g>
<!-- [97] -->
<g id="&#45;1" class="node"><title>[97]</title>
<ellipse fill="none" stroke="black" cx="197" cy="-2018" rx="27" ry="18"/>
<text text-anchor="middle" x="197" y="-2013.8" font-family="Times,serif" font-size="14.00">2</text>
</g>
<!-- [96]&#45;&gt;[97] -->
<g id="+0" class="edge"><title>[96]&#45;&gt;[97]</title>
<path fill="none" stroke="brown" d="M197,-2085.6C197,-2074.26 197,-2059.23 197,-2046.32"/>
<polygon fill="brown" stroke="brown" points="200.5,-2046.1 197,-2036.1 193.5,-2046.1 200.5,-2046.1"/>
<text text-anchor="middle" x="242.944" y="-2056.8" font-family="Times,serif" font-size="14.00">[97] SLOAD +0</text>
</g>
<!-- [98] -->
<g id="&#45;1" class="node"><title>[98]</title>
<ellipse fill="none" stroke="black" cx="197" cy="-1932" rx="27" ry="18"/>
<text text-anchor="middle" x="197" y="-1927.8" font-family="Times,serif" font-size="14.00">1</text>
</g>
<!-- [97]&#45;&gt;[98] -->
<g id="&#45;1" class="edge"><title>[97]&#45;&gt;[98]</title>
<path fill="none" stroke="green" d="M197,-1999.6C197,-1988.26 197,-1973.23 197,-1960.32"/>
<polygon fill="green" stroke="green" points="200.5,-1960.1 197,-1950.1 193.5,-1960.1 200.5,-1960.1"/>
<text text-anchor="middle" x="227.324" y="-1970.8" font-family="Times,serif" font-size="14.00">[98] EQ &#45;1</text>
</g>
<!-- [99] -->
<g id="&#45;1" class="node"><title>[99]</title>
<ellipse fill="none" stroke="black" cx="197" cy="-1846" rx="27" ry="18"/>
<text text-anchor="middle" x="197" y="-1841.8" font-family="Times,serif" font-size="14.00">1</text>
</g>
<!-- [98]&#45;&gt;[99] -->
<g id="+0" class="edge"><title>[98]&#45;&gt;[99]</title>
<path fill="none" stroke="brown" d="M197,-1913.6C197,-1902.26 197,-1887.23 197,-1874.32"/>
<polygon fill="brown" stroke="brown" points="200.5,-1874.1 197,-1864.1 193.5,-1874.1 200.5,-1874.1"/>
<text text-anchor="middle" x="244.11" y="-1884.8" font-family="Times,serif" font-size="14.00">[99] ISZERO +0</text>
</g>
<!-- [101] -->
<g id="&#45;1" class="node"><title>[101]</title>
<ellipse fill="none" stroke="black" cx="197" cy="-1760" rx="27" ry="18"/>
<text text-anchor="middle" x="197" y="-1755.8" font-family="Times,serif" font-size="14.00">2</text>
</g>
<!-- [99]&#45;&gt;[101] -->
<g id="+1" class="edge"><title>[99]&#45;&gt;[101]</title>
<path fill="none" stroke="red" d="M197,-1827.6C197,-1816.26 197,-1801.23 197,-1788.32"/>
<polygon fill="red" stroke="red" points="200.5,-1788.1 197,-1778.1 193.5,-1788.1 200.5,-1788.1"/>
<text text-anchor="middle" x="244.506" y="-1798.8" font-family="Times,serif" font-size="14.00">[101] PUSH1 +1</text>
</g>
<!-- [102] -->
<g id="&#45;1" class="node"><title>[102]</title>
<ellipse fill="none" stroke="black" cx="197" cy="-1674" rx="27" ry="18"/>
<text text-anchor="middle" x="197" y="-1669.8" font-family="Times,serif" font-size="14.00">0</text>
</g>
<!-- [101]&#45;&gt;[102] -->
<g id="&#45;2" class="edge"><title>[101]&#45;&gt;[102]</title>
<path fill="none" stroke="blue" d="M197,-1741.6C197,-1730.26 197,-1715.23 197,-1702.32"/>
<polygon fill="blue" stroke="blue" points="200.5,-1702.1 197,-1692.1 193.5,-1702.1 200.5,-1702.1"/>
<text text-anchor="middle" x="241.721" y="-1712.8" font-family="Times,serif" font-size="14.00">[102] JUMPI &#45;2</text>
</g>
<!-- [102]&#45;&gt;[114] -->
<g id="0" class="edge"><title>[102]&#45;&gt;[114]</title>
<path fill="none" stroke="blue" d="M178.735,-1660.42C159.756,-1647.36 129.684,-1626.65 106.794,-1610.89"/>
<polygon fill="blue" stroke="blue" points="108.633,-1607.91 98.4112,-1605.12 104.663,-1613.67 108.633,-1607.91"/>
<text text-anchor="middle" x="147.5" y="-1626.8" font-family="Times,serif" font-size="14.00">0</text>
</g>
<!-- [104] -->
<g id="&#45;1" class="node"><title>[104]</title>
<ellipse fill="none" stroke="black" cx="197" cy="-1588" rx="27" ry="18"/>
<text text-anchor="middle" x="197" y="-1583.8" font-family="Times,serif" font-size="14.00">1</text>
</g>
<!-- [102]&#45;&gt;[104] -->
<g id="+1" class="edge"><title>[102]&#45;&gt;[104]</title>
<path fill="none" stroke="red" d="M197,-1655.6C197,-1644.26 197,-1629.23 197,-1616.32"/>
<polygon fill="red" stroke="red" points="200.5,-1616.1 197,-1606.1 193.5,-1616.1 200.5,-1616.1"/>
<text text-anchor="middle" x="244.506" y="-1626.8" font-family="Times,serif" font-size="14.00">[104] PUSH1 +1</text>
</g>
<!-- [106] -->
<g id="&#45;1" class="node"><title>[106]</title>
<ellipse fill="none" stroke="black" cx="197" cy="-1502" rx="27" ry="18"/>
<text text-anchor="middle" x="197" y="-1497.8" font-family="Times,serif" font-size="14.00">2</text>
</g>
<!-- [104]&#45;&gt;[106] -->
<g id="+1" class="edge"><title>[104]&#45;&gt;[106]</title>
<path fill="none" stroke="red" d="M197,-1569.6C197,-1558.26 197,-1543.23 197,-1530.32"/>
<polygon fill="red" stroke="red" points="200.5,-1530.1 197,-1520.1 193.5,-1530.1 200.5,-1530.1"/>
<text text-anchor="middle" x="244.506" y="-1540.8" font-family="Times,serif" font-size="14.00">[106] PUSH1 +1</text>
</g>
<!-- [107] -->
<g id="&#45;1" class="node"><title>[107]</title>
<ellipse fill="none" stroke="black" cx="197" cy="-1416" rx="27" ry="18"/>
<text text-anchor="middle" x="197" y="-1411.8" font-family="Times,serif" font-size="14.00">3</text>
</g>
<!-- [106]&#45;&gt;[107] -->
<g id="+1" class="edge"><title>[106]&#45;&gt;[107]</title>
<path fill="none" stroke="red" d="M197,-1483.6C197,-1472.26 197,-1457.23 197,-1444.32"/>
<polygon fill="red" stroke="red" points="200.5,-1444.1 197,-1434.1 193.5,-1444.1 200.5,-1444.1"/>
<text text-anchor="middle" x="240.613" y="-1454.8" font-family="Times,serif" font-size="14.00">[107] DUP2 +1</text>
</g>
<!-- [108] -->
<g id="&#45;1" class="node"><title>[108]</title>
<ellipse fill="none" stroke="black" cx="197" cy="-1330" rx="27" ry="18"/>
<text text-anchor="middle" x="197" y="-1325.8" font-family="Times,serif" font-size="14.00">3</text>
</g>
<!-- [107]&#45;&gt;[108] -->
<g id="+0" class="edge"><title>[107]&#45;&gt;[108]</title>
<path fill="none" stroke="brown" d="M197,-1397.6C197,-1386.26 197,-1371.23 197,-1358.32"/>
<polygon fill="brown" stroke="brown" points="200.5,-1358.1 197,-1348.1 193.5,-1358.1 200.5,-1358.1"/>
<text text-anchor="middle" x="245.282" y="-1368.8" font-family="Times,serif" font-size="14.00">[108] SWAP1 +0</text>
</g>
<!-- [109] -->
<g id="&#45;1" class="node"><title>[109]</title>
<ellipse fill="none" stroke="black" cx="197" cy="-1244" rx="27" ry="18"/>
<text text-anchor="middle" x="197" y="-1239.8" font-family="Times,serif" font-size="14.00">1</text>
</g>
<!-- [108]&#45;&gt;[109] -->
<g id="&#45;2" class="edge"><title>[108]&#45;&gt;[109]</title>
<path fill="none" stroke="orange" d="M197,-1311.6C197,-1300.26 197,-1285.23 197,-1272.32"/>
<polygon fill="orange" stroke="orange" points="200.5,-1272.1 197,-1262.1 193.5,-1272.1 200.5,-1272.1"/>
<text text-anchor="middle" x="247.432" y="-1282.8" font-family="Times,serif" font-size="14.00">[109] SSTORE &#45;2</text>
</g>
<!-- [110] -->
<g id="&#45;1" class="node"><title>[110]</title>
<ellipse fill="none" stroke="black" cx="201" cy="-1158" rx="27" ry="18"/>
<text text-anchor="middle" x="201" y="-1153.8" font-family="Times,serif" font-size="14.00">0</text>
</g>
<!-- [109]&#45;&gt;[110] -->
<g id="&#45;1" class="edge"><title>[109]&#45;&gt;[110]</title>
<path fill="none" stroke="green" d="M197.809,-1226C198.348,-1214.69 199.068,-1199.58 199.687,-1186.57"/>
<polygon fill="green" stroke="green" points="203.198,-1186.42 200.178,-1176.26 196.206,-1186.08 203.198,-1186.42"/>
<text text-anchor="middle" x="236.822" y="-1196.8" font-family="Times,serif" font-size="14.00">[110] POP &#45;1</text>
</g>
<!-- [112] -->
<g id="&#45;1" class="node"><title>[112]</title>
<ellipse fill="none" stroke="black" cx="205" cy="-1072" rx="27" ry="18"/>
<text text-anchor="middle" x="205" y="-1067.8" font-family="Times,serif" font-size="14.00">1</text>
</g>
<!-- [110]&#45;&gt;[112] -->
<g id="+1" class="edge"><title>[110]&#45;&gt;[112]</title>
<path fill="none" stroke="red" d="M201.809,-1140C202.348,-1128.69 203.068,-1113.58 203.687,-1100.57"/>
<polygon fill="red" stroke="red" points="207.198,-1100.42 204.178,-1090.26 200.206,-1100.08 207.198,-1100.42"/>
<text text-anchor="middle" x="251.25" y="-1110.8" font-family="Times,serif" font-size="14.00">[112] PUSH1 +1</text>
</g>
<!-- [113] -->
<g id="&#45;1" class="node"><title>[113]</title>
<ellipse fill="none" stroke="black" cx="213" cy="-964" rx="27" ry="18"/>
<text text-anchor="middle" x="213" y="-959.8" font-family="Times,serif" font-size="14.00">0</text>
</g>
<!-- [112]&#45;&gt;[113] -->
<g id="&#45;1" class="edge"><title>[112]&#45;&gt;[113]</title>
<path fill="none" stroke="blue" d="M206.285,-1053.97C207.545,-1037.28 209.485,-1011.58 210.956,-992.084"/>
<polygon fill="blue" stroke="blue" points="214.455,-992.224 211.718,-981.988 207.475,-991.697 214.455,-992.224"/>
<text text-anchor="middle" x="252.877" y="-1013.8" font-family="Times,serif" font-size="14.00">[113] JUMP &#45;1</text>
</g>
<!-- [113]&#45;&gt;[123] -->
<g id="0" class="edge"><title>[113]&#45;&gt;[123]</title>
<path fill="none" stroke="blue" d="M205.492,-946.404C200.132,-934.554 192.816,-918.382 186.694,-904.849"/>
<polygon fill="blue" stroke="blue" points="189.803,-903.23 182.492,-895.561 183.425,-906.115 189.803,-903.23"/>
<text text-anchor="middle" x="200.5" y="-916.8" font-family="Times,serif" font-size="14.00">0</text>
</g>
<!-- [118] -->
<g id="&#45;1" class="node"><title>[118]</title>
<ellipse fill="none" stroke="black" cx="74" cy="-1416" rx="27" ry="18"/>
<text text-anchor="middle" x="74" y="-1411.8" font-family="Times,serif" font-size="14.00">2</text>
</g>
<!-- [116]&#45;&gt;[118] -->
<g id="+1" class="edge"><title>[116]&#45;&gt;[118]</title>
<path fill="none" stroke="red" d="M74,-1483.6C74,-1472.26 74,-1457.23 74,-1444.32"/>
<polygon fill="red" stroke="red" points="77.5001,-1444.1 74,-1434.1 70.5001,-1444.1 77.5001,-1444.1"/>
<text text-anchor="middle" x="121.25" y="-1454.8" font-family="Times,serif" font-size="14.00">[118] PUSH1 +1</text>
</g>
<!-- [119] -->
<g id="&#45;1" class="node"><title>[119]</title>
<ellipse fill="none" stroke="black" cx="74" cy="-1330" rx="27" ry="18"/>
<text text-anchor="middle" x="74" y="-1325.8" font-family="Times,serif" font-size="14.00">3</text>
</g>
<!-- [118]&#45;&gt;[119] -->
<g id="+1" class="edge"><title>[118]&#45;&gt;[119]</title>
<path fill="none" stroke="red" d="M74,-1397.6C74,-1386.26 74,-1371.23 74,-1358.32"/>
<polygon fill="red" stroke="red" points="77.5001,-1358.1 74,-1348.1 70.5001,-1358.1 77.5001,-1358.1"/>
<text text-anchor="middle" x="117.357" y="-1368.8" font-family="Times,serif" font-size="14.00">[119] DUP2 +1</text>
</g>
<!-- [120] -->
<g id="&#45;1" class="node"><title>[120]</title>
<ellipse fill="none" stroke="black" cx="74" cy="-1244" rx="27" ry="18"/>
<text text-anchor="middle" x="74" y="-1239.8" font-family="Times,serif" font-size="14.00">3</text>
</g>
<!-- [119]&#45;&gt;[120] -->
<g id="+0" class="edge"><title>[119]&#45;&gt;[120]</title>
<path fill="none" stroke="brown" d="M74,-1311.6C74,-1300.26 74,-1285.23 74,-1272.32"/>
<polygon fill="brown" stroke="brown" points="77.5001,-1272.1 74,-1262.1 70.5001,-1272.1 77.5001,-1272.1"/>
<text text-anchor="middle" x="122.282" y="-1282.8" font-family="Times,serif" font-size="14.00">[120] SWAP1 +0</text>
</g>
<!-- [121] -->
<g id="&#45;1" class="node"><title>[121]</title>
<ellipse fill="none" stroke="black" cx="60" cy="-1158" rx="27" ry="18"/>
<text text-anchor="middle" x="60" y="-1153.8" font-family="Times,serif" font-size="14.00">1</text>
</g>
<!-- [120]&#45;&gt;[121] -->
<g id="&#45;2" class="edge"><title>[120]&#45;&gt;[121]</title>
<path fill="none" stroke="orange" d="M71.1669,-1226C69.2503,-1214.5 66.6785,-1199.07 64.4861,-1185.92"/>
<polygon fill="orange" stroke="orange" points="67.9253,-1185.26 62.8289,-1175.97 61.0206,-1186.41 67.9253,-1185.26"/>
<text text-anchor="middle" x="118.432" y="-1196.8" font-family="Times,serif" font-size="14.00">[121] SSTORE &#45;2</text>
</g>
<!-- [122] -->
<g id="&#45;1" class="node"><title>[122]</title>
<ellipse fill="none" stroke="black" cx="50" cy="-1018" rx="27" ry="18"/>
<text text-anchor="middle" x="50" y="-1013.8" font-family="Times,serif" font-size="14.00">0</text>
</g>
<!-- [121]&#45;&gt;[122] -->
<g id="&#45;1" class="edge"><title>[121]&#45;&gt;[122]</title>
<path fill="none" stroke="green" d="M58.7537,-1139.8C57.0528,-1116.33 53.986,-1074.01 51.9715,-1046.21"/>
<polygon fill="green" stroke="green" points="55.4443,-1045.7 51.2306,-1035.98 48.4626,-1046.21 55.4443,-1045.7"/>
<text text-anchor="middle" x="95.0781" y="-1110.8" font-family="Times,serif" font-size="14.00">[122] POP &#45;1</text>
</g>
<!-- [122]&#45;&gt;[123] -->
<g id="+0" class="edge"><title>[122]&#45;&gt;[123]</title>
<path fill="none" stroke="brown" d="M46.6948,-1000.13C44.6347,-984.808 44.0355,-962.197 54.2334,-946 73.5464,-915.326 112.164,-897.515 140.551,-888.072"/>
<polygon fill="brown" stroke="brown" points="141.622,-891.405 150.117,-885.074 139.528,-884.725 141.622,-891.405"/>
<text text-anchor="middle" x="116.383" y="-959.8" font-family="Times,serif" font-size="14.00">[123] JUMPDEST +0</text>
</g>
<!-- [126] -->
<g id="&#45;1" class="node"><title>[126]</title>
<ellipse fill="none" stroke="black" cx="200" cy="-620" rx="27" ry="18"/>
<text text-anchor="middle" x="200" y="-615.8" font-family="Times,serif" font-size="14.00">2</text>
</g>
<!-- [125]&#45;&gt;[126] -->
<g id="+1" class="edge"><title>[125]&#45;&gt;[126]</title>
<path fill="none" stroke="red" d="M197.607,-688.001C198.011,-676.691 198.551,-661.576 199.016,-648.566"/>
<polygon fill="red" stroke="red" points="202.524,-648.38 199.384,-638.262 195.529,-648.13 202.524,-648.38"/>
<text text-anchor="middle" x="242.613" y="-658.8" font-family="Times,serif" font-size="14.00">[126] DUP1 +1</text>
</g>
<!-- [128] -->
<g id="&#45;1" class="node"><title>[128]</title>
<ellipse fill="none" stroke="black" cx="201" cy="-534" rx="27" ry="18"/>
<text text-anchor="middle" x="201" y="-529.8" font-family="Times,serif" font-size="14.00">3</text>
</g>
<!-- [126]&#45;&gt;[128] -->
<g id="+1" class="edge"><title>[126]&#45;&gt;[128]</title>
<path fill="none" stroke="red" d="M200.207,-601.595C200.342,-590.257 200.521,-575.227 200.675,-562.315"/>
<polygon fill="red" stroke="red" points="204.177,-562.136 200.796,-552.095 197.178,-562.053 204.177,-562.136"/>
<text text-anchor="middle" x="248.506" y="-572.8" font-family="Times,serif" font-size="14.00">[128] PUSH1 +1</text>
</g>
<!-- [129] -->
<g id="&#45;1" class="node"><title>[129]</title>
<ellipse fill="none" stroke="black" cx="201" cy="-448" rx="27" ry="18"/>
<text text-anchor="middle" x="201" y="-443.8" font-family="Times,serif" font-size="14.00">2</text>
</g>
<!-- [128]&#45;&gt;[129] -->
<g id="&#45;1" class="edge"><title>[128]&#45;&gt;[129]</title>
<path fill="none" stroke="green" d="M201,-515.595C201,-504.257 201,-489.227 201,-476.315"/>
<polygon fill="green" stroke="green" points="204.5,-476.095 201,-466.095 197.5,-476.095 204.5,-476.095"/>
<text text-anchor="middle" x="240.276" y="-486.8" font-family="Times,serif" font-size="14.00">[129] ADD &#45;1</text>
</g>
<!-- [130] -->
<g id="&#45;1" class="node"><title>[130]</title>
<ellipse fill="none" stroke="black" cx="202" cy="-362" rx="27" ry="18"/>
<text text-anchor="middle" x="202" y="-357.8" font-family="Times,serif" font-size="14.00">2</text>
</g>
<!-- [129]&#45;&gt;[130] -->
<g id="+0" class="edge"><title>[129]&#45;&gt;[130]</title>
<path fill="none" stroke="brown" d="M201.207,-429.595C201.342,-418.257 201.521,-403.227 201.675,-390.315"/>
<polygon fill="brown" stroke="brown" points="205.177,-390.136 201.796,-380.095 198.178,-390.053 205.177,-390.136"/>
<text text-anchor="middle" x="250.282" y="-400.8" font-family="Times,serif" font-size="14.00">[130] SWAP2 +0</text>
</g>
<!-- [131] -->
<g id="&#45;1" class="node"><title>[131]</title>
<ellipse fill="none" stroke="black" cx="202" cy="-276" rx="27" ry="18"/>
<text text-anchor="middle" x="202" y="-271.8" font-family="Times,serif" font-size="14.00">1</text>
</g>
<!-- [130]&#45;&gt;[131] -->
<g id="&#45;1" class="edge"><title>[130]&#45;&gt;[131]</title>
<path fill="none" stroke="green" d="M202,-343.595C202,-332.257 202,-317.227 202,-304.315"/>
<polygon fill="green" stroke="green" points="205.5,-304.095 202,-294.095 198.5,-304.095 205.5,-304.095"/>
<text text-anchor="middle" x="239.078" y="-314.8" font-family="Times,serif" font-size="14.00">[131] POP &#45;1</text>
</g>
<!-- [132] -->
<g id="&#45;1" class="node"><title>[132]</title>
<ellipse fill="none" stroke="black" cx="202" cy="-190" rx="27" ry="18"/>
<text text-anchor="middle" x="202" y="-185.8" font-family="Times,serif" font-size="14.00">0</text>
</g>
<!-- [131]&#45;&gt;[132] -->
<g id="&#45;1" class="edge"><title>[131]&#45;&gt;[132]</title>
<path fill="none" stroke="green" d="M202,-257.595C202,-246.257 202,-231.227 202,-218.315"/>
<polygon fill="green" stroke="green" points="205.5,-218.095 202,-208.095 198.5,-218.095 205.5,-218.095"/>
<text text-anchor="middle" x="239.078" y="-228.8" font-family="Times,serif" font-size="14.00">[132] POP &#45;1</text>
</g>
<!-- [134] -->
<g id="&#45;1" class="node"><title>[134]</title>
<ellipse fill="none" stroke="black" cx="208" cy="-104" rx="27" ry="18"/>
<text text-anchor="middle" x="208" y="-99.8" font-family="Times,serif" font-size="14.00">1</text>
</g>
<!-- [132]&#45;&gt;[134] -->
<g id="+1" class="edge"><title>[132]&#45;&gt;[134]</title>
<path fill="none" stroke="red" d="M202.39,-171.747C202.68,-162.351 203.172,-150.526 203.987,-140 204.186,-137.439 204.427,-134.776 204.692,-132.114"/>
<polygon fill="red" stroke="red" points="208.183,-132.386 205.789,-122.066 201.224,-131.627 208.183,-132.386"/>
<text text-anchor="middle" x="251.506" y="-142.8" font-family="Times,serif" font-size="14.00">[134] PUSH1 +1</text>
</g>
<!-- [135] -->
<g id="&#45;1" class="node"><title>[135]</title>
<ellipse fill="none" stroke="black" cx="262" cy="-18" rx="27" ry="18"/>
<text text-anchor="middle" x="262" y="-13.8" font-family="Times,serif" font-size="14.00">0</text>
</g>
<!-- [134]&#45;&gt;[135] -->
<g id="&#45;1" class="edge"><title>[134]&#45;&gt;[135]</title>
<path fill="none" stroke="blue" d="M207.164,-85.5916C207.446,-75.7055 209.13,-63.4555 214.733,-54 219.053,-46.7119 225.537,-40.4716 232.329,-35.3654"/>
<polygon fill="blue" stroke="blue" points="234.648,-38.0216 240.958,-29.5105 230.718,-32.2292 234.648,-38.0216"/>
<text text-anchor="middle" x="257.133" y="-56.8" font-family="Times,serif" font-size="14.00">[135] JUMP &#45;1</text>
</g>
<!-- [135]&#45;&gt;[85] -->
<g id="0" class="edge"><title>[135]&#45;&gt;[85]</title>
<path fill="none" stroke="blue" d="M279.45,-32.0549C286.41,-38.0551 293.952,-45.6863 299,-54 310.756,-73.3593 313,-80.3508 313,-103 313,-2707 313,-2707 313,-2707 313,-2729.65 311.574,-2737.16 299,-2756 294.678,-2762.47 288.779,-2768.31 282.705,-2773.28"/>
<polygon fill="blue" stroke="blue" points="280.331,-2770.69 274.445,-2779.5 284.54,-2776.28 280.331,-2770.69"/>
<text text-anchor="middle" x="316.5" y="-1411.8" font-family="Times,serif" font-size="14.00">0</text>
</g>
<!-- 0 -->
<g id="node42" class="node"><title>0</title>
<ellipse fill="none" stroke="black" cx="255" cy="-2878" rx="27" ry="18"/>
<text text-anchor="middle" x="255" y="-2873.8" font-family="Times,serif" font-size="14.00">0</text>
</g>
<!-- 0&#45;&gt;[85] -->
<g id="+0" class="edge"><title>0&#45;&gt;[85]</title>
<path fill="none" stroke="brown" d="M255,-2859.6C255,-2848.26 255,-2833.23 255,-2820.32"/>
<polygon fill="brown" stroke="brown" points="258.5,-2820.1 255,-2810.1 251.5,-2820.1 258.5,-2820.1"/>
<text text-anchor="middle" x="312.883" y="-2830.8" font-family="Times,serif" font-size="14.00">[85] JUMPDEST +0</text>
</g>
</g>
</svg>
